<?xml version="1.0" standalone="no"?>
<!DOCTYPE svg PUBLIC "-//W3C//DTD SVG 1.1//EN" "http://www.w3.org/Graphics/SVG/1.1/DTD/svg11.dtd" >
<svg xmlns="http://www.w3.org/2000/svg" xmlns:xlink="http://www.w3.org/1999/xlink" version="1.1">
<metadata></metadata>
<defs>
<font id="sageregular" horiz-adv-x="1212" >
<font-face units-per-em="2048" ascent="1638" descent="-410" />
<missing-glyph horiz-adv-x="673" />
<glyph horiz-adv-x="0" />
<glyph horiz-adv-x="0" />
<glyph horiz-adv-x="682" />
<glyph unicode="&#xa;" horiz-adv-x="0" />
<glyph unicode="&#xd;" horiz-adv-x="0" />
<glyph unicode=" "  horiz-adv-x="673" />
<glyph unicode="&#x09;" horiz-adv-x="673" />
<glyph unicode="&#xa0;" horiz-adv-x="673" />
<glyph unicode="!" horiz-adv-x="387" d="M102 101q0 38 27 65q26 26 63 26v325l-59 712q-8 102 -8 133q0 56 23 85q21 26 46 26q24 0 47 -26q24 -27 24 -86q0 -48 -8 -132l-62 -738v-299q36 0 63 -27t27 -64q0 -38 -27 -65q-26 -26 -65 -26q-37 0 -64 27q-27 29 -27 64z" />
<glyph unicode="#" horiz-adv-x="1454" d="M102 445v61h247l100 484h-347v60h360l96 454h58l-96 -454h540l95 454h59l-96 -454h234v-60h-244l-101 -484h345v-61h-357l-94 -451h-60l96 451h-544l-92 -451h-60l95 451h-234zM406 508h543l100 482h-541z" />
<glyph unicode="$" horiz-adv-x="1339" d="M102 296l188 -7q-35 -13 -48 -28.5t-13 -44.5q0 -80 90 -140t251 -73v682q-155 45 -223 75t-112 68q-96 84 -96 225q0 82 35.5 153t96.5 120.5t137 82.5t162 47v129h4v-129q54 10 116 10q54 0 100 -3v122h3v-123q88 -6 155 -25t94.5 -34.5t63.5 -42.5q93 -69 93 -165 l-184 8q28 16 39 29.5t13 42.5q3 36 -6.5 64t-37.5 54t-85.5 43t-144.5 23v-624q165 -50 242.5 -83.5t115.5 -70.5q86 -82 86 -232q0 -167 -104 -277q-120 -127 -340 -163v-121h-3v121q-72 -12 -141 -12q-40 0 -75 4v-113h-4v113q-81 7 -158 26.5t-149.5 53.5t-116.5 90 t-44 125zM268 1145q0 -39 11.5 -67.5t43.5 -58.5t92.5 -58.5t154.5 -59.5v553q-152 -24 -227 -107t-75 -202zM573 3q36 -3 75 -3q74 0 142 11v611l-110 32q-92 25 -107 30v-681zM574 900q76 -24 106 -32l110 -32v624q-46 3 -100 3q-64 0 -116 -9v-554zM793 12q92 15 160 51 t105.5 85.5t55 103.5t17.5 115q0 89 -65 143q-29 25 -87.5 49.5t-185.5 61.5v-609z" />
<glyph unicode="%" horiz-adv-x="1447" d="M102 1149q0 155 79 263q48 64 106 87q-96 -77 -96 -350q0 -268 94 -347q-59 24 -105 86q-78 107 -78 261zM330 46l739 1390h5l-739 -1390h-5zM463 1498q59 -24 105 -84q79 -103 79 -265q0 -161 -80 -264q-46 -60 -101 -83q92 78 92 347q0 272 -95 349zM802 376 q0 156 78 263q47 62 106 87q-95 -78 -95 -349q0 -279 101 -353q-66 25 -113 89q-77 106 -77 263zM1157 24q100 73 100 353q0 270 -93 348q58 -24 102 -83q80 -104 80 -266q0 -158 -78 -264q-48 -65 -111 -88z" />
<glyph unicode="&#x26;" horiz-adv-x="2060" d="M103 450q0 152 81 254q85 106 333 273l7 4q18 13 20 14l-19 27q-145 202 -145 363q0 122 94 217q64 67 155 87q92 25 180 -3q77 -19 136 -61q99 -69 99 -181q0 -170 -320 -340q1 0 2.5 1t2.5 2q-57 -35 -71 -43l20 -26q11 -15 127 -172q19 -25 52 -71t45 -63 q90 -126 134 -188q7 67 -6.5 129t-36 102t-49 72t-42 44.5t-19.5 14.5l-5 3l85 -1h410v-3q13 3 49 10q44 7 75 7q179 0 311 -121q71 -65 110.5 -154t39.5 -186t-39.5 -186t-110.5 -154l-4 -2l-4 -2q-131 -115 -303 -115h-8q-10 0 -15 1q-28 2 -42 4h2h-5q-16 2 -22 4 q-1 1 -5 1t-5 1l18 -3q-5 1 -15 3.5t-15 3.5q-2 1 -6.5 2t-6.5 1q-4 1 -11 3.5t-11 3.5q-2 1 -5.5 2t-5.5 2q-14 5 -26 10q-131 57 -242 202l-24 31l-1 1l-13 20q-2 4 -7 11t-6 8q0 -1 -1 -4t-2 -4q-1 -2 -2 -5t-2 -4q-10 -27 -22 -48q-4 -8 -7 -12q-1 -2 -7 -11 q-8 -14 -12 -19q-12 -18 -26 -33q-6 -8 -10 -12l-12 -13q-19 -23 -65 -56q-10 -6 -14 -9q-28 -18 -44 -26l-7 -3.5t-8 -3.5q-1 -1 -3 -1t-3 -1l-6 -3q-2 0 -3 -1t-3.5 -2t-3.5 -1h-1q-3 -1 -9 -3.5t-9 -3.5l-9 -3l-9 -3q-2 -1 -4.5 -1t-3.5 -1q-77 -25 -148 -25h-7 q-82 0 -163 32q-82 32 -149 93q-67 62 -105 143q-40 83 -37 180zM224 542q0 -172 136 -323t314 -151q124 0 236 78l5 5l11 13q8 8 11 12q9 10 25 33q4 5 12 19q4 6 6 10q3 4 7 12q15 27 23 48q1 3 3.5 9t3.5 9v1v1q-135 204 -238 353q-88 127 -179 249q-7 10 -21 28t-16 21 l-17 23q-70 -47 -133 -95q-20 -18 -28 -26q-43 -40 -82 -98q-79 -118 -79 -231zM479 1452q0 -139 162 -364l15 -21q59 36 112 67q190 139 190 300q0 56 -17 105q-16 48 -49 86q-32 35 -78 55q-1 0 -3.5 1t-3.5 2q-88 27 -177 3q-52 -18 -88 -59q-63 -69 -63 -175zM1038 461 q0 20 1 29v-8q-1 -7 -1 -21zM1042 406q0 -4 1 -11.5t2 -11.5q0 -1 0.5 -3t0.5 -3q-2 10 -4 30v-1zM1046 533q23 -32 67 -96l26 -39l13 -19q66 -94 110 -147q11 -15 14 -19q16 -19 47 -50l21 -18q1 -1 3 -2.5t3 -2.5h1q9 -8 27 -20q87 -58 182 -58h1h1h1q8 -1 27 -1 q53 0 97 11q61 15 119 52q71 65 110 153t39 184t-39 183.5t-110 153.5q-131 120 -309 120q-37 0 -74 -6q-53 -8 -98 -27q-108 -44 -182 -135.5t-95 -205.5q-2 -8 -2 -11zM1050 361q0 -2 1 -5.5t1 -4.5t1 -4t1 -4q-2 6 -4 18zM1061 318q1 -1 1 -3t1 -3q5 -15 7 -19 q0 -1 0.5 -1t0.5 -1q-4 9 -10 27zM1074 284q0 -2 1.5 -5l2.5 -5q1 -3 3.5 -9t4.5 -9q0 -1 1 -2.5t2 -2.5zM1092 245q1 -2 2.5 -4.5t3.5 -5.5t3 -5l2.5 -5t2.5 -4q-10 16 -14 24zM1143 169q2 -3 8 -9q8 -10 13 -15zM1165 144l2 -2q3 -3 9 -8.5t9 -8.5q-14 12 -20 19z M1214 100q2 -2 6.5 -5t6.5 -5q1 0 3 -2q7 -5 32 -21q-26 15 -48 33zM1312 41q2 -1 5.5 -2.5t5.5 -2.5q-5 2 -10 5h-1zM1323 36q3 -1 8.5 -3t7.5 -3h1l-15 6h-2zM1347 28h1l2 -1q1 -1 4 -2t5 -2q-4 1 -12 5zM1359 23q2 -1 6.5 -2t6.5 -1t6.5 -2t6.5 -2l12 -3l-12 3 q-16 4 -24 7h-2zM1434 7q2 -1 7 -1t7 -1q5 -1 13.5 -1t12.5 -1q-14 0 -20 1h1h-1q-2 0 -5.5 0.5t-5.5 0.5q-1 0 -4 1t-5 1z" />
<glyph unicode="(" horiz-adv-x="604" d="M102 526q0 546 345 984l5 5h38l-18 -22q-149 -180 -233 -415q-95 -265 -95 -544q0 -346 110 -625q52 -130 112 -231l101 -145l15 -18l19 -22h-36l-5 5q-3 3 -8 9.5t-7 9.5l8 6l-8 -6l-101 146l9 7l-10 -6q-241 390 -241 862z" />
<glyph unicode=")" horiz-adv-x="602" d="M102 -507l18 22q8 9 24 29l70 100q75 118 133 265q111 281 111 625q0 264 -91 531q-81 239 -238 428l-18 22h40l4 -5q345 -438 345 -984q0 -494 -263 -897l-10 6l9 -7l-70 -100l-9 6l9 -6q-4 -5 -11.5 -15t-11.5 -15l-5 -5h-36z" />
<glyph unicode="*" horiz-adv-x="976" d="M102 864q0 12 3 22t16 27.5t48 31.5t90 23q72 12 124 27q-51 -46 -103 -112q-61 -76 -112 -76q-30 0 -49 16q-17 13 -17 41zM106 1250q0 22 18 39t43 17q53 0 127 -86q23 -27 66 -70l44 -43q-73 28 -148 42q-150 27 -150 101zM418 1410q0 43 20 65q19 21 40 21 q23 0 47 -21q23 -21 23 -64q0 -26 -31 -115q-24 -68 -35 -136q-19 84 -44 162q-20 58 -20 88zM420 706q0 26 22 86q25 71 42 153q13 -77 44 -156q22 -55 22 -82q0 -40 -21 -64q-19 -22 -44 -22q-24 0 -44 21q-21 22 -21 64zM573 1003q53 -16 105 -25q128 -24 165 -56 q31 -28 31 -63q0 -19 -16 -35t-42 -16q-61 0 -148 98q-49 54 -95 97zM579 1110q49 44 89 92q90 106 147 106q27 0 43 -15t16 -41q0 -41 -30 -62q-35 -24 -120 -40q-78 -15 -145 -40z" />
<glyph unicode="+" horiz-adv-x="1343" d="M102 707v64h535v537h65v-537h539v-64h-539v-533h-65v533h-535z" />
<glyph unicode="," horiz-adv-x="442" d="M102 103q0 37 25 64q24 25 63 25q64 0 105 -60q44 -65 44 -154q0 -132 -79 -229q-36 -45 -89 -79q46 30 82 77q71 94 71 188q0 32 -8 53.5t-21 30.5t-23 12.5t-21 3.5q-8 0 -36 -7q-13 -4 -24 -4q-40 0 -65 22q-24 21 -24 57z" />
<glyph unicode="-" horiz-adv-x="692" d="M102 419v112h488v-112h-488z" />
<glyph unicode="." horiz-adv-x="387" d="M102 101q0 38 27 65q26 26 64 26t65 -27t27 -63q0 -38 -27 -65t-65 -27q-37 0 -64 27q-27 29 -27 64z" />
<glyph unicode="/" horiz-adv-x="1003" d="M102 10l726 1463h72l-725 -1463h-73z" />
<glyph unicode="0" horiz-adv-x="1292" d="M102 700q0 72 14.5 152.5t42.5 164.5t74 160.5t104 137t138 96.5t171 36q108 0 200.5 -52.5t154 -134t105.5 -183t64 -198t20 -179.5q0 -120 -38 -245.5t-106 -230.5q-68 -104 -173.5 -171t-226.5 -67q-109 0 -202 49.5t-154.5 127t-105 174t-63 189t-19.5 174.5z M336 697q0 -268 30.5 -421t97 -220t182.5 -67t182.5 67t97 220t30.5 421q0 258 -13 366q-36 306 -202 366q-43 15 -95 15q-64 0 -114.5 -26t-83 -62t-55 -102.5t-33.5 -117.5t-17 -140t-6.5 -136.5t-0.5 -137.5v-9v-7.5v-8.5z" />
<glyph unicode="1" horiz-adv-x="667" d="M102 1134v4q62 23 101 43q193 96 303 262h59v-1438v-3h-209v1260l-9 3q-9 -6 -30.5 -20.5t-35 -23.5t-34.5 -21.5t-41 -21.5q-54 -25 -104 -44z" />
<glyph unicode="2" horiz-adv-x="1230" d="M102 1024q0 180 126 301q128 122 339 122q125 0 227 -33.5t165 -93.5q128 -119 128 -290q0 -89 -35.5 -173.5t-89.5 -149.5t-135 -137t-154.5 -125.5t-166.5 -124.5t-154 -125l-21 -17h557q195 0 236 204l5 -1l-84 -379h-940q114 83 212.5 167t199.5 192t172.5 214 t116.5 230t45 243q0 151 -88 242q-63 66 -94 88q-73 52 -166 52q-87 0 -162.5 -34t-126 -89.5t-79.5 -126t-29 -144.5q0 -57 30.5 -84.5t74.5 -27.5q31 0 70 9.5t55 25.5l22 -197q-108 0 -182 68q-74 69 -74 194z" />
<glyph unicode="3" horiz-adv-x="1222" d="M102 298l218 -49q-18 -8 -35 -19q-38 -25 -38 -59q0 -182 320 -182q162 0 241.5 94.5t79.5 327.5q0 131 -37 227.5t-102.5 139.5t-146.5 19q-47 -14 -224 -47l-2 3q144 26 226 48q114 32 175.5 118.5t61.5 207.5q0 102 -17 167.5t-52.5 97t-74.5 42t-99 10.5 q-62 0 -117.5 -14t-97 -51.5t-41.5 -91.5q0 -25 12.5 -39t44.5 -30l-202 -53q0 96 111 187q52 43 129.5 69t160.5 26q106 0 194.5 -26.5t143.5 -73.5q113 -93 113 -225q0 -65 -21.5 -114.5t-55.5 -81.5t-89.5 -55.5t-109 -36.5t-127.5 -25q127 0 235 -48.5t174 -140 t66 -207.5q0 -134 -77 -234q-149 -193 -475 -193q-132 0 -234 34q-106 35 -168.5 107.5t-62.5 170.5z" />
<glyph unicode="4" horiz-adv-x="1277" d="M102 504q223 169 369.5 376t199.5 442q12 58 32 106l204 -11q0 -81 -76 -224q-74 -140 -185 -266q-42 -48 -112.5 -107t-128 -101t-154.5 -111t-141 -101h597v313l190 163h19v-476h260v-3h-260v-499h217v-3h-643v3h217v499h-605z" />
<glyph unicode="5" horiz-adv-x="1230" d="M102 409q0 125 74 194q74 68 182 68l-22 -197q-16 16 -55 25.5t-70 9.5q-44 0 -74.5 -27.5t-30.5 -84.5q0 -74 29 -144.5t79.5 -126t126 -89.5t162.5 -34q45 0 82.5 10t72 34.5t48.5 37.5t47 48q3 2 4 3.5t3 3t3 3.5q88 91 88 242q0 119 -45 243t-116.5 230t-172.5 214 t-199.5 192t-212.5 167h940l84 -379l-5 -1q-41 204 -236 204h-557l21 -18q61 -54 154 -125t166.5 -124.5t154.5 -125t135 -136.5t89.5 -149.5t35.5 -173.5q0 -171 -128 -290q-63 -60 -165 -93.5t-227 -33.5q-211 0 -339 122q-126 122 -126 301z" />
<glyph unicode="6" horiz-adv-x="1269" d="M102 672q0 213 83 391q84 179 223 281q140 103 303 103q151 0 250 -69q100 -67 100 -164l-205 34q28 50 28 96q0 42 -47 71t-126 29q-70 0 -127 -32t-94 -81t-65 -121t-43 -139.5t-25 -149t-13.5 -137t-6.5 -114.5v-6l8 16q53 113 148.5 165.5t214.5 52.5q96 0 175 -24.5 t131 -65.5t87.5 -95.5t50.5 -112t15 -118.5q0 -134 -62 -245t-181 -182q-118 -69 -270 -69q-235 0 -390 172q-77 85 -119.5 218t-42.5 296zM339 569q0 -56 1.5 -98.5t8.5 -106.5t19.5 -111.5t36.5 -100t57 -86t83.5 -55.5t114.5 -22q135 0 207 130.5t72 367.5 q0 183 -67.5 292.5t-212.5 109.5q-91 0 -184 -60q-68 -45 -102 -114t-34 -146z" />
<glyph unicode="7" horiz-adv-x="1228" d="M102 1051l84 379h940l-1 -3l-94 -173q-7 -12 -8 -14q-4 -7 -24.5 -39.5t-38 -61t-44.5 -78t-50 -99.5q-84 -186 -166.5 -460t-132.5 -502h-257q0 40 37.5 128t84.5 160q85 129 281.5 457t258.5 426l48 83h-678q-194 0 -235 -204z" />
<glyph unicode="8" horiz-adv-x="1267" d="M102 330q0 113 86 201.5t251 164.5v6q-146 64 -224 145q-79 85 -79 215q0 113 68 202q67 89 176.5 136t241.5 47q196 0 330 -86q136 -85 136 -213q0 -114 -73.5 -202.5t-215.5 -165.5v-4q132 -55 209 -107q153 -98 157 -246q0 -121 -77 -224q-76 -99 -203 -157 q-127 -56 -270 -56q-136 0 -250 40t-189 121q-74 80 -74 183zM252 311q0 -146 103 -234t260 -88q104 0 192.5 37t143 106t54.5 154q0 71 -39.5 129.5t-107.5 98.5q-45 28 -102.5 56t-96 44t-111 44.5t-99.5 39.5q-197 -105 -197 -387zM259 1161q0 -110 80 -179 q22 -19 51.5 -35.5t50 -25.5t59.5 -24.5t53 -21.5l238 -96q39 22 67.5 45t46.5 50.5t29 52t15.5 61t6 64t1.5 73.5q0 128 -101 222q-101 97 -263 97q-132 0 -234 -84q-100 -84 -100 -199z" />
<glyph unicode="9" horiz-adv-x="1269" d="M102 951q0 133 63 245t181 181q118 70 269 70q235 0 390 -172q77 -85 119.5 -218t42.5 -296q0 -208 -84 -391q-84 -180 -223 -282q-140 -102 -301 -102q-151 0 -252 68q-98 68 -98 165l239 57q-39 -39 -53 -76.5t-9 -88.5q6 -52 51 -87t122 -35q66 0 121 30t92 77.5 t66 114t45.5 132t28 140.5t15.5 130t5 108l-7 -18q-48 -78 -149.5 -123t-214.5 -45q-96 0 -175 24.5t-131 65.5t-87.5 95.5t-50.5 112t-15 118.5zM338 932q0 -173 70 -277t221 -104q100 0 188 57q66 42 90 78t24 85q0 24 1 74.5t1.5 85t-1 87.5t-6 91t-14.5 85t-25 80.5 t-38.5 67.5t-54 55t-73.5 34t-95 13q-138 0 -213 -140.5t-75 -371.5z" />
<glyph unicode=":" horiz-adv-x="387" d="M102 101q0 38 27 65q26 26 64 26q39 0 65 -26q27 -27 27 -64q0 -38 -27 -65t-65 -27q-37 0 -64 27q-27 29 -27 64zM102 866q0 36 27 64q26 28 64 28t65 -27t27 -65q0 -37 -27 -64t-65 -27q-37 0 -64 27t-27 64z" />
<glyph unicode=";" horiz-adv-x="442" d="M102 103q0 37 25 64q24 25 63 25q64 0 105 -60q44 -65 44 -154q0 -132 -79 -229q-36 -45 -89 -79q46 30 82 77q71 94 71 188q0 32 -8 53.5t-21 30.5t-23 12.5t-21 3.5q-8 0 -36 -7q-13 -4 -24 -4q-40 0 -65 22q-24 21 -24 57zM117 866q0 38 27 65t65 27q37 0 64 -27 q26 -26 26 -65q0 -38 -26 -64q-27 -27 -64 -27q-39 0 -66 27q-26 26 -26 64z" />
<glyph unicode="&#x3c;" horiz-adv-x="1339" d="M102 707v71l1135 478v-70l-1074 -444l1074 -445v-71z" />
<glyph unicode="=" horiz-adv-x="1339" d="M102 173v65h1135v-65h-1135zM102 687v65h1135v-65h-1135z" />
<glyph unicode="&#x3e;" horiz-adv-x="1339" d="M102 226v70l1075 444l-1075 445v71l1135 -480v-71z" />
<glyph unicode="?" horiz-adv-x="827" d="M102 1342q0 45 74 86q35 20 85 33q93 30 183 5q112 -19 185 -104q95 -113 95 -273q0 -137 -80 -224t-191 -87q-18 0 -36 3q-84 9 -147 87l-1 -676q37 0 63 -26q27 -27 27 -64q0 -39 -27 -66q-26 -26 -65 -26q-37 0 -64 27q-27 29 -27 65q0 37 27 64q26 26 63 26l2 684 l2 -3l1 -1q44 -55 103 -78q20 -5 36 -5q103 0 153 99q46 91 46 265q0 167 -76 246q-49 50 -105 68q-73 16 -154 -5q-64 -29 -100 -107q-18 -41 -46 -41q-14 0 -20 5.5t-6 22.5z" />
<glyph unicode="@" horiz-adv-x="2058" d="M102 504q0 447 297 752q296 304 732 304q336 0 542 -206t206 -525q0 -297 -170 -526q-167 -223 -410 -223q-74 0 -109 32q-34 31 -34 94h1q0 1 -1 2.5t-1 2.5l1 39v406l-278 -155q-144 -95 -144 -223q0 -72 39 -119q41 -48 106 -48q20 0 44 6q-72 -30 -127 -30 q-74 0 -129 44q-52 42 -52 109q0 91 92 162q72 55 177 105l272 152v20q0 89 -12 131q-13 47 -69 84q-29 18 -67 27q87 -6 140 -36q63 -36 83 -80q21 -47 21 -148l10 -439l11 -49q7 -14 18 -28q30 -36 82 -36q99 0 220 95q117 92 196 276q78 182 78 377q0 305 -207 505 q-206 200 -535 200q-273 0 -490 -141q-214 -138 -350 -393q-133 -252 -133 -549q0 -397 251 -650q252 -254 633 -254q225 0 418 88q188 86 311 232q113 136 182 290h9q-95 -268 -339 -440q-258 -183 -577 -183q-403 0 -671 271q-267 272 -267 675zM648 757q0 46 73 105 q42 33 110 48q-72 -30 -86 -104q-5 -29 -13 -47.5t-18 -25.5t-16 -8.5t-14 -1.5q-22 0 -29 8t-7 26z" />
<glyph unicode="A" horiz-adv-x="1210" d="M29 3l541 1453l615 -1453h-273l-224 531h-458l-198 -531h-3zM231 537h456l-242 574z" />
<glyph unicode="B" horiz-adv-x="1323" d="M154 3v1426l493 -1q256 0 384.5 -89.5t128.5 -254.5q0 -120 -96 -201q-104 -88 -246 -112q185 -20 303 -127q111 -100 111 -252q0 -184 -155 -289q-154 -103 -421 -103zM389 3h206q185 0 278.5 108t93.5 291q0 168 -71.5 268t-211.5 100h-295v-767zM389 773h295 q56 0 107 29t84 71q50 62 50 199q0 52 -1.5 81t-11.5 68t-30 68q-91 136 -253 136h-240v-652z" />
<glyph unicode="C" horiz-adv-x="1550" d="M86 709q0 132 42.5 252t118.5 212q111 133 277 209q161 74 332 74h9q170 0 317 -47q29 -10 56 -17t62 -10.5t60.5 1t45 23t22.5 50.5h3v-469h-3q0 110 -9 150q-12 53 -49 107q-31 43 -61.5 73.5t-78.5 63.5q-47 32 -157.5 52t-207.5 20q-131 0 -221.5 -55.5 t-158.5 -171.5q-70 -118 -102 -235.5t-32 -281.5q0 -350 126.5 -542t387.5 -192q97 0 207 20.5t157 52.5q49 33 79.5 64t60.5 76q29 43 43 94t15 77t1 82h3v-469h-3q-18 22 -36 38q-38 34 -103 34q-34 0 -107 -25q-147 -47 -317 -47q-149 0 -288 50t-249 143 q-111 93 -176 234q-66 143 -66 310z" />
<glyph unicode="D" horiz-adv-x="1552" d="M154 0v1429l545 -1q112 0 236.5 -30t211.5 -86q94 -59 163 -143q73 -86 114 -205.5t41 -254.5t-41 -253.5t-114 -203.5q-104 -123 -263 -187.5t-349 -64.5h-544zM389 3h309q111 0 200 41t146 113q54 68 91 172q36 99 50.5 184t14.5 196t-14.5 197.5t-50.5 186.5 q-54 157 -162 244.5t-275 87.5h-309v-1422z" />
<glyph unicode="E" horiz-adv-x="1396" d="M154 0v3v1425h1051l11 -374h-3q-4 84 -14.5 143t-33.5 101t-52 66.5t-78.5 38t-102.5 18t-135 4.5h-408v-652h16q67 0 109 10t77.5 39.5t51.5 88.5t16 153h3v-583h-3q0 163 -63 226t-191 63h-16v-767h382q189 0 267 16q151 32 213 153q51 99 55 273h3l-7 -445h-1148z" />
<glyph unicode="F" horiz-adv-x="1284" d="M154 0v3v1422v3h1051l25 -454h-4q-5 71 -15 129t-23 102t-34.5 78t-42 57t-52 39t-59 25t-69.5 14t-75 6t-84 1h-383v-652q42 0 68 1t58.5 5.5t51.5 13.5t40.5 24t33.5 38.5t22.5 55.5t15 76t4.5 100h4v-680h-4q0 102 -18.5 172t-57.5 111t-91 59t-127 20v-766v-3h-235z " />
<glyph unicode="G" horiz-adv-x="1595" d="M86 709q0 133 42.5 253t118.5 211q109 133 274.5 208t343.5 75q170 0 296 -47q80 -29 144 -29q123 0 123 76h3v-469h-3q0 105 -31.5 187.5t-84 134t-126.5 85t-152.5 47t-168.5 13.5q-246 0 -380 -228q-70 -119 -102 -236.5t-32 -280.5q0 -365 132 -549.5t382 -184.5 q171 0 266 111q97 112 97 278v195h-320v3h811v-3h-242l-1 -559h-4q-20 39 -45.5 56.5t-66.5 17.5q-55 0 -160 -33q-116 -38 -189 -53.5t-146 -15.5q-149 0 -288 50t-249 143q-111 93 -176 234q-66 143 -66 310z" />
<glyph unicode="H" horiz-adv-x="1431" d="M154 0v3v1422v3h235v-655h653v652v3h235v-3v-1422v-3h-235v3v767h-653v-770h-235z" />
<glyph unicode="I" horiz-adv-x="544" d="M154 0v3v1422v3h235v-3v-1422v-3h-235z" />
<glyph unicode="J" horiz-adv-x="815" d="M25 191l117 18q-6 -43 -6.5 -74.5t11 -56t21 -39t25 -25t22.5 -14t13 -5.5l1 -1q24 -9 52 -9q72 0 114 77q40 74 40 157v8v1201h235v-3v-1041q0 -77 -20 -145t-62.5 -127.5t-121 -94.5t-185.5 -35q-111 0 -184 55q-72 54 -72 154z" />
<glyph unicode="K" horiz-adv-x="1400" d="M154 0v3v1422v3h235v-3l1 -792l115 128l582 668h5l-431 -494l722 -932l2 -3h-301l-3 3l-575 755l-116 -129l-1 -626v-3h-235z" />
<glyph unicode="L" horiz-adv-x="1337" d="M154 0v3v1422v3h235v-3v-1422h338q99 0 169.5 8t132.5 30t101.5 59.5t70.5 98t47 143t23 196.5h4l-25 -538h-1096z" />
<glyph unicode="M" horiz-adv-x="1605" d="M154 0v1425v3h247l428 -1094l379 1094h244v-3v-1422v-3h-236v3v1422h-5l-504 -1453h-4l-523 1338q-14 37 -14 115h-9v-1425h-3z" />
<glyph unicode="N" horiz-adv-x="1335" d="M154 0v1425v3h263l760 -1098v1099h4v-1457h-4l-994 1394q-19 30 -19 59h-7v-1425h-3z" />
<glyph unicode="O" horiz-adv-x="1726" d="M84 709q0 148 58.5 284.5t159.5 238.5t247.5 163t313.5 61q176 0 324.5 -61.5t246.5 -165t153 -238.5t55 -282q0 -146 -58.5 -280.5t-160 -235.5t-248 -161t-312.5 -60q-73 0 -141 11l-60 13q-137 33 -247.5 104.5t-182 167t-110 208.5t-38.5 233zM349 709 q0 -142 16.5 -253.5t53 -203.5t99 -154t150.5 -93q84 -30 195 -30q116 0 204 33.5t146.5 94.5t95.5 153.5t52.5 202.5t15.5 250q0 86 -1.5 140.5t-12 141.5t-29.5 143t-57 122.5t-91 105t-135.5 65t-187.5 26.5t-187.5 -27.5t-135.5 -68t-91 -108.5t-57 -125.5t-29.5 -143.5 t-12 -138.5t-1.5 -132.5z" />
<glyph unicode="P" horiz-adv-x="1314" d="M154 0v3v1422v3h466q97 0 183.5 -12t170 -43t143.5 -78.5t96.5 -123t36.5 -172.5t-31 -171t-81.5 -119t-122.5 -73.5t-145 -39t-158 -10.5h-322v-583v-3h-236zM390 589h278q106 0 182 56t111.5 146.5t35.5 205.5q0 428 -373 428h-234v-836z" />
<glyph unicode="Q" horiz-adv-x="1773" d="M84 701q0 148 58.5 284.5t159.5 238.5t247.5 163t313.5 61q176 0 324.5 -61.5t246.5 -165t153 -238.5t55 -282t-58.5 -282t-164.5 -238l293 -180l2 -1h-372l-59 77q-189 -113 -420 -113q-73 0 -141 11l-60 13q-137 33 -247.5 104.5t-182 167t-110 208.5t-38.5 233z M349 701q0 -142 16.5 -253.5t53 -203.5t99 -154t150.5 -93q84 -30 195 -30q253 0 379 163l-229 298l-662 407q-2 -47 -2 -134zM351 839l959 -590q67 166 67 452q0 86 -1.5 140.5t-12 141.5t-29.5 143t-57 122.5t-91 105t-135.5 65t-187.5 26.5q-90 0 -163 -19.5t-124.5 -52 t-90.5 -81t-63 -99t-39.5 -114.5t-22 -119.5t-9.5 -120.5z" />
<glyph unicode="R" horiz-adv-x="1478" d="M154 0v3v1422v3h467q127 0 227 -29.5t158 -81.5q113 -101 113 -238q0 -244 -322 -309q149 -21 264 -126q44 -40 68 -95.5t24 -112.5v-201q0 -134 38.5 -187.5t134.5 -53.5q50 0 145 26l1 -3q-114 -33 -236 -33q-114 0 -209 49q-51 27 -80.5 79t-29.5 122v233 q0 66 -14.5 130t-46.5 99q-65 74 -213 74h-253v-767h-1v-3h-235zM390 773h289q122 0 166 81q38 72 38 207q0 138 -62 246q-31 56 -88 87t-131 31h-212v-652z" />
<glyph unicode="S" horiz-adv-x="1288" d="M102 474h4q1 -106 47 -199.5t122.5 -159t179 -103t213.5 -37.5q174 0 272 90q100 90 100 246q0 140 -95 213t-317 123q-164 36 -273 92q-199 100 -203 306q0 184 130 298q129 113 359 113q103 0 186 -31q81 -29 115 -29q30 0 65.5 16t42.5 44h4l4 -369h-3q-2 84 -29 150 t-68 106t-97.5 65.5t-111 35t-113.5 9.5q-88 0 -154.5 -26t-103 -70t-54.5 -94.5t-18 -106.5q0 -93 85 -160q42 -31 105 -56.5t96 -34t115 -27.5q128 -31 215 -67t152 -89q134 -106 134 -308q0 -197 -157 -321q-155 -121 -383 -121q-136 0 -285 63q-44 17 -88 27 q-38 8 -75 9q-6 -1 -11 -1q-42 -2 -67.5 -26t-24.5 -72h-3z" />
<glyph unicode="T" horiz-adv-x="1560" d="M61 891l28 537h1383l27 -537h-4q-7 111 -20.5 189t-39.5 140t-61.5 99.5t-91 62t-124 34t-164.5 9.5h-96v-1425h-236v1425h-95q-140 0 -227.5 -23t-147 -86t-87.5 -162.5t-40 -262.5h-4z" />
<glyph unicode="U" horiz-adv-x="1425" d="M141 434v991v3h236v-3v-1113q0 -337 360 -337q118 0 216.5 27t171.5 79t114 134.5t41 188.5v1025h3v-1025q0 -108 -42.5 -191.5t-117.5 -135.5t-173 -78.5t-213 -26.5q-596 0 -596 462z" />
<glyph unicode="V" d="M25 1428h271l2 -3l466 -1107l414 1111h5l-543 -1457l-614 1453z" />
<glyph unicode="W" horiz-adv-x="2013" d="M29 1429h265l429 -1112l305 775l-127 337h261l412 -1112l403 1112h4l-527 -1457l-424 1115l-437 -1115z" />
<glyph unicode="X" horiz-adv-x="1363" d="M31 1428h286l2 -3l389 -541l393 545h5l-396 -548l636 -881h-286l-493 683l-494 -683h-4l496 686l-532 739z" />
<glyph unicode="Y" horiz-adv-x="1232" d="M16 1428h273l2 -3l478 -776l443 780h3l-444 -784v-645h-235v590l-518 835z" />
<glyph unicode="Z" horiz-adv-x="1443" d="M78 917l47 511h1158l-898 -1425h443q99 0 174 12t143 45.5t113 89.5t74 146.5t36 214.5h3l-25 -511h-1252l898 1425h-400q-122 0 -208 -24.5t-150 -83.5t-101 -157t-52 -243h-3z" />
<glyph unicode="[" horiz-adv-x="391" d="M102 -481v1968h188q-32 -4 -52 -18q-36 -25 -43 -66q-7 -40 -7 -151v-1497q0 -113 6 -148q8 -45 41 -69q16 -12 54 -19h-187z" />
<glyph unicode="\" horiz-adv-x="1003" d="M102 1473h73l725 -1463h-72z" />
<glyph unicode="]" horiz-adv-x="393" d="M102 -481q35 6 54 19q34 24 42 66q7 40 7 151v1497q0 112 -6 147q-8 44 -41 68q-18 14 -54 20h186v-1968h-188z" />
<glyph unicode="^" horiz-adv-x="1112" d="M102 772l443 736h29l436 -736h-98l-355 600l-354 -600h-101z" />
<glyph unicode="_" horiz-adv-x="1306" d="M102 -178h1102v-58h-1102v58z" />
<glyph unicode="`" horiz-adv-x="479" d="M102 1453q0 18 8 26t32 8q27 0 47 -19q26 -24 76 -102l112 -173l-110 91q-123 102 -145 128q-20 23 -20 41z" />
<glyph unicode="a" horiz-adv-x="1011" d="M70 192q0 113 70.5 174t213.5 98q78 20 275 73v7q-39 8 -81 20t-104 34t-111.5 54t-69.5 68l-74 106q103 71 248 71q197 0 287 -93q91 -93 91 -244v-449q0 -27 1 -43t5 -33t12.5 -24.5t22 -14.5t35.5 -7t50.5 2.5t68.5 9.5v-3q-47 -15 -99 -15h-13q-60 2 -113.5 17 t-96 49.5t-59.5 81.5v6q-58 -78 -125.5 -115.5t-168.5 -37.5q-119 0 -193 56q-72 54 -72 152zM257 740q13 -40 61 -75t114 -59t110.5 -37t86.5 -22v91q0 108 -14 150q-34 106 -182 106q-88 0 -139 -44q-40 -35 -40 -83q0 -13 3 -27zM267 208q0 -96 41 -151t120 -55 q49 0 107.5 43t93.5 98v391l-243 -65q-58 -15 -88.5 -85.5t-30.5 -175.5z" />
<glyph unicode="b" horiz-adv-x="1169" d="M131 0v3h1v1349l185 138v-798l16 25q121 180 325 180q113 0 205 -50q102 -55 157.5 -160t55.5 -247q0 -141 -55.5 -246t-157.5 -160q-92 -50 -205 -50q-205 0 -325 179l-16 25v-188h-186zM304.5 555q-0.5 -24 0.5 -63t1 -52v-54q0 -16 -1 -28q0 -26 1 -38q1 -18 3.5 -54 t9.5 -59.5t18 -41.5q46 -74 118 -121.5t141 -47.5q68 0 120.5 30.5t82.5 76.5t49 108.5t25 117t6 111.5q0 60 -6.5 115t-25.5 116.5t-49 106t-82 73.5t-120 29q-147 0 -259 -165q-12 -18 -19.5 -43.5t-10 -59t-3 -57.5z" />
<glyph unicode="c" horiz-adv-x="1019" d="M86 428q0 198 136.5 333.5t353.5 135.5q88 0 164.5 -31t124.5 -83l-97 -186v1q0 45 -3.5 81t-16.5 78.5t-35.5 70.5t-63.5 47t-96 19q-53 0 -97 -26.5t-72 -67t-47.5 -93.5t-28.5 -102.5t-12 -98.5l-1 -8q0 -156 28 -253q20 -67 73 -115q54 -49 120 -71q59 -19 122 -19 h18q74 3 136 30.5t106.5 86.5t53.5 140h4q-14 -143 -119.5 -228t-263.5 -85q-109 0 -201 35.5t-154 95.5t-97 141t-35 172z" />
<glyph unicode="d" horiz-adv-x="1169" d="M92 440q0 142 55.5 247t157.5 160q92 50 205 50q204 0 325 -180l16 -28v663l186 138v-1490h-186v226l-22 -60q-41 -84 -130 -133t-189 -49q-113 0 -205 50q-102 55 -157.5 160t-55.5 246zM300 440q0 -54 6 -108t24.5 -117t47 -109.5t79 -78t115.5 -31.5q55 0 122 38 t109 94q23 30 34 83t12.5 92t1.5 114v23v91.5t-1.5 73t-6 73.5t-11.5 37q-45 76 -123 124.5t-137 48.5q-55 0 -100 -22.5t-73.5 -61t-49 -84t-30.5 -98.5t-14.5 -96.5t-4.5 -85.5z" />
<glyph unicode="e" horiz-adv-x="1036" d="M86 428q0 198 136.5 333.5t353.5 135.5q88 0 164.5 -31t124.5 -83q62 -65 84 -126l1 -2v-3l-655 -205q3 -118 28 -202q20 -67 73 -115q54 -49 120 -71q59 -19 122 -19h18q74 3 136 30.5t106.5 86.5t53.5 140h4q-14 -143 -119.5 -228t-263.5 -85q-109 0 -201 35.5 t-154 95.5t-97 141t-35 172zM295 453l473 147q0 45 -4 81t-17 77.5t-35.5 69.5t-63 47t-95.5 19q-53 0 -97 -26.5t-72 -67t-47.5 -93.5t-28.5 -102.5t-12 -98.5l-1 -8v-45z" />
<glyph unicode="f" horiz-adv-x="679" d="M-35 878v3h166v69q0 218 101 361q62 88 152 141q90 54 188 54q104 0 174 -48q30 -20 47 -49l-146 -81q30 26 39 66q1 10 1 19q0 30 -21 56q-29 34 -94 34q-59 0 -106 -33.5t-74 -83.5t-45 -114t-24.5 -118t-6.5 -102v-171h31l290 2v-99l-321 93v-877h-185v878h-166z" />
<glyph unicode="g" horiz-adv-x="1030" d="M61 -375q0 74 60 135t183 116q-52 0 -101 16q-52 13 -86.5 53t-36.5 109q0 128 90 215l88 88q-122 92 -122 225q0 135 119 225t287 90q115 0 211 -45l118 118l111 113l70 -69l-296 -163q55 -26 100 -68l3 -3q88 -74 88 -198q0 -135 -119 -225q-118 -90 -286 -90 q-107 0 -247 67l-10 5h-1q-1 1 -3 2t-3 2q-1 0 -3 1.5t-3 2.5t-4 3q-2 1 -4.5 2.5t-3.5 2.5l-87 -87q-58 -57 -78 -129q-1 -5 -1 -10q0 -24 32 -43q39 -24 96 -35t114 -11q52 0 182 15q128 15 182 15q154 0 231 -74t77 -208q0 -172 -146 -294t-373 -122q-79 0 -153.5 15 t-137 44.5t-100 79.5t-37.5 114zM65 -375q0 -71 43.5 -120.5t112 -70.5t151.5 -24q17 -1 33 -1q66 0 130 11q79 15 146 43.5t100 64.5q82 91 82 199q0 34 -11 64t-35 56.5t-69 42.5t-106 16q-47 0 -150.5 -8.5t-185.5 -21.5q-104 -53 -146 -85q-95 -75 -95 -166zM322 579 q0 -86 14 -145l371 372q-58 88 -165 88q-54 0 -95 -20.5t-64 -52t-37.5 -75.5t-19 -83.5t-4.5 -83.5zM336 431q40 -161 206 -161q57 0 98.5 20.5t64 50t36 74t17 81.5t3.5 83q0 142 -53 225z" />
<glyph unicode="h" horiz-adv-x="1095" d="M129 0v1352l185 138h1v-978q8 177 95 275q98 110 272 110q140 0 218 -85q71 -79 71 -206v-606h-185v642q0 64 -20 122q-20 59 -64 96q-34 29 -77 29q-12 0 -24 -2q-115 -21 -189 -102q-55 -62 -76 -153t-21 -221v-411h-186z" />
<glyph unicode="i" horiz-adv-x="389" d="M92 1058q0 40 29 69t69 29q41 0 70 -29t29 -69t-29.5 -69.5t-69.5 -29.5t-69 29t-29 70zM97 1v738l2 1l184 137v-876h-186zM283 880v2h2z" />
<glyph unicode="j" horiz-adv-x="411" d="M-274 -401l198 50q-28 -18 -48 -51.5t-24 -71.5q-1 -11 -1 -21q0 -27 7 -51q10 -35 47 -56q32 -19 81 -19h14q124 5 124 294v1070h1l185 138v-1038q0 -220 -89 -343q-89 -125 -241 -125q-103 0 -178 63q-76 61 -76 161zM113 1058q0 40 29 69t70 29q40 0 69 -29t29 -69 q0 -41 -29 -70t-69 -29t-69.5 29.5t-29.5 69.5z" />
<glyph unicode="k" horiz-adv-x="1030" d="M129 0v3v1349h1l185 138v-1152l110 132l332 408l2 3v-1h1h198l-414 -269l-5 -6l451 -605h-232l-332 466l-111 -133v-330v-3h-186z" />
<glyph unicode="l" horiz-adv-x="444" d="M129 0v3v1349h1l185 138v-1487v-3h-186z" />
<glyph unicode="m" horiz-adv-x="1689" d="M123 0v3v740l185 138h1v-233q58 115 145.5 182t191.5 67q133 0 200 -79q90 -105 90 -176q56 118 138 186.5t187 68.5q77 0 139 -25.5t97 -69.5q71 -86 71 -185v-614v-3h-186v3v637q0 59 -17 112.5t-57.5 92t-97.5 38.5q-95 0 -193 -117q-32 -38 -77 -124q-2 -48 -2 -231 v-408v-3h-185v3v621q0 107 -44 180.5t-124 73.5q-51 0 -109 -36.5t-104 -98.5q-16 -21 -26 -36t-13.5 -21.5t-10.5 -20t-13 -23.5v-639v-3h-186z" />
<glyph unicode="n" horiz-adv-x="1089" d="M123 0v3v740l185 138h1v-241q56 114 155 185.5t212 71.5q140 0 218 -85q71 -77 71 -206v-603v-3h-185v3v639q0 66 -14 117.5t-52 88t-97 36.5q-47 0 -112 -35.5t-110 -87.5q-27 -30 -42.5 -52.5t-28 -46t-15.5 -28.5v-631v-3h-186z" />
<glyph unicode="o" horiz-adv-x="1132" d="M86 440q0 194 136 324q139 132 341 133h6q201 0 336 -127q140 -129 141 -326v-6q0 -194 -136 -322q-136 -130 -340 -132h-6q-199 0 -337 127q-141 131 -141 329zM297 438q0 -66 5.5 -122t23 -119.5t46.5 -107.5q28 -43 79 -73q49 -29 115 -29h4q266 2 266 445v10 q0 65 -5.5 121t-23 120t-46.5 108.5t-79 74.5q-49 29 -115 28h-4q-266 -2 -266 -446v-10z" />
<glyph unicode="p" horiz-adv-x="1163" d="M125 -607v1349l186 139v-184l16 20q121 180 324 180q114 0 206 -50q102 -55 157 -160t55 -247t-55 -246.5t-157 -159.5q-92 -50 -206 -50q-204 0 -324 179l-16 23v-793h-186zM311 440q0 -179 2 -214.5t17 -60.5q38 -64 112 -116t147 -52q55 0 99.5 20.5t73.5 57t49 80 t30.5 96t15 97.5t4.5 92q0 60 -6 115.5t-24.5 117.5t-47 107t-79 74.5t-115.5 29.5q-73 0 -145.5 -50.5t-115.5 -121.5q-11 -17 -14 -61t-3 -211z" />
<glyph unicode="q" horiz-adv-x="1169" d="M92 440q0 142 55.5 247t157.5 160q92 50 205 50q184 0 301 -148h11l215 156v-3v-1509h-186v812l-16 -33q-42 -87 -131.5 -137.5t-193.5 -50.5q-113 0 -205 50q-102 55 -157.5 160t-55.5 246zM301 468q0 -128 24 -214q29 -103 97 -184q63 -75 145 -75h10q54 4 125 43 t113 104q11 17 19 35.5t13 44.5t8 41.5t4.5 51t2 47t0 55t-0.5 51.5v35v35t-0.5 29.5t-1.5 30t-3 26t-4.5 27t-6.5 23.5t-9 25.5t-12 22t-16 24.5q-84 114 -231 143q-21 4 -41 4q-41 0 -74 -17q-51 -24 -80.5 -69.5t-48.5 -109t-25.5 -119.5t-6.5 -110z" />
<glyph unicode="r" horiz-adv-x="796" d="M123 0v742l185 139v-242l12 29q59 124 124 176q68 53 172 53q81 0 130 -45t49 -115l-185 -75q0 22 9 62.5t9 60.5q0 36 -17.5 65.5t-58.5 29.5q-111 0 -196 -152q-34 -59 -41 -90.5t-7 -118.5v-519h-185z" />
<glyph unicode="s" horiz-adv-x="913" d="M113 -16v347h3q0 -141 101.5 -242.5t237.5 -101.5q116 0 175.5 50t59.5 144q0 44 -13.5 67.5t-46.5 46.5q-58 42 -216 86q-138 38 -214 94q-85 63 -85 186q0 107 79 171q80 65 188 65q99 0 180 -35q24 -10 54 -16t58.5 -5t48 15t19.5 41h4v-280h-4q-34 77 -79 148 q-80 129 -281 129q-74 0 -111.5 -47.5t-37.5 -119.5q0 -28 6.5 -47.5t12.5 -26.5t23 -24q17 -15 36 -26.5t47 -22.5t41.5 -16t51 -15.5t42.5 -12.5q182 -56 257 -117q76 -61 76 -168q0 -119 -92 -193q-91 -74 -279 -74q-75 0 -155 38q-28 13 -57 21.5t-59.5 10t-49.5 -16 t-19 -53.5h-2z" />
<glyph unicode="t" horiz-adv-x="792" d="M0 878v3q101 0 176 23t117.5 64.5t63 91.5t20.5 110h4v-289l326 3v-99l-318 93h-8v-689q0 -76 34 -133t95 -57q39 0 82.5 30t71.5 75q23 36 37 86.5t14 80.5h3q-4 -56 -22 -105.5t-50 -91t-84 -66t-119 -24.5q-105 0 -175.5 51t-70.5 160v683h-197z" />
<glyph unicode="u" horiz-adv-x="1091" d="M117 275v467l186 139v-642q0 -98 48 -165.5t137 -67.5q57 0 112.5 31t92 75.5t59 90t22.5 77.5v462l185 139v-878v-3h-185v248l-14 -36q-55 -111 -146 -169.5t-207 -58.5q-141 0 -219 85q-71 77 -71 206z" />
<glyph unicode="v" horiz-adv-x="813" d="M43 878v3h201v-3l266 -651l251 651l1 3h5l-1 -3l-347 -896z" />
<glyph unicode="w" horiz-adv-x="1349" d="M43 878v3h200v-3l256 -658l195 573l-33 85v3h160v-3l253 -657l224 657l1 3h3l-1 -3l-307 -896l-298 806l-271 -806z" />
<glyph unicode="x" horiz-adv-x="950" d="M41 880l220 1l259 -349l278 346l3 2h4l-283 -351l394 -529h-214l-292 388l-313 -388h-5l316 392z" />
<glyph unicode="y" horiz-adv-x="923" d="M39 878v3h201v-3h1l371 -663l263 663l1 3h3l-1 -3l-437 -1103l-113 -301h-175l366 507z" />
<glyph unicode="z" horiz-adv-x="1024" d="M74 578l25 303h747l-521 -878h301q64 0 106 5t79 20t58 39.5t37.5 68t24 100.5t11.5 141h4l-16 -377h-816l520 878h-284q-57 0 -93 -3.5t-67 -16t-47.5 -31t-30.5 -55t-21 -80.5t-13 -114h-4z" />
<glyph unicode="{" horiz-adv-x="464" d="M102 425q60 -39 102 -90q78 -95 78 -203q0 -64 -24 -179q-20 -97 -20 -171q0 -155 125 -238q-67 36 -118 90q-112 119 -112 267q0 70 23 168q28 118 28 176q0 89 -69 166q-8 10 -13 14zM110 597q73 73 73 164q0 59 -27 175q-25 103 -25 172q0 153 113 269q45 47 95 76 q-15 -12 -32 -33q-70 -85 -70 -186q0 -72 21 -172q23 -115 23 -183q0 -121 -83 -208q-35 -37 -88 -74z" />
<glyph unicode="|" horiz-adv-x="270" d="M102 -510v2018h66v-2018h-66z" />
<glyph unicode="}" horiz-adv-x="458" d="M102 1462q62 -34 110 -85q112 -118 112 -266q0 -70 -23 -168q-28 -118 -28 -175q0 -92 69 -168q2 -2 4 -4.5t5 -5t5 -4.5q-64 42 -103 89q-78 93 -78 204q0 65 24 180q20 97 20 171q0 150 -117 232zM116 -443q17 13 34 35q69 86 69 185q0 76 -20 172q-23 117 -23 183 q0 122 83 209q38 40 91 76q-76 -73 -76 -167q0 -59 27 -175q25 -103 25 -172q0 -152 -114 -269q-48 -48 -96 -77z" />
<glyph unicode="~" horiz-adv-x="1329" d="M102 611q10 128 77 192q74 71 159 71q102 0 410 -132q172 -74 252 -74q107 0 165 67q49 56 62 137q-9 -114 -73 -186q-70 -77 -174 -77q-54 0 -112 18q-65 21 -290 113q-173 71 -252 71q-175 0 -223 -200h-1z" />
<glyph unicode="&#xa3;" horiz-adv-x="1468" d="M102 155q0 78 59 122.5t144 44.5q53 0 105 -9.5t125 -30.5t86 -24q7 46 -11 110.5t-40.5 113t-66.5 134t-63 126.5h-222v3h221q-51 110 -63 183q-25 149 38.5 272t197 192.5t307.5 69.5q132 0 231 -57.5t113 -162.5q13 -95 -47 -155.5t-154 -60.5l8 124q57 -18 98.5 13 t43.5 89q3 69 -42.5 117.5t-111 69t-139.5 20.5q-69 0 -120 -30t-78.5 -74.5t-43.5 -106.5t-20 -115.5t-2 -112.5q4 -138 27 -275h504v-3h-503q7 -42 21 -119t19.5 -116.5t10.5 -94t0 -96t-19 -78.5q232 -57 393 -57q63 0 118 24.5t85.5 62t25.5 87.5t-55 96l3 2 q35 -31 57.5 -76t22.5 -92q0 -128 -80 -205.5t-220 -77.5q-76 0 -153.5 21t-128 45t-126.5 66q-79 -132 -320 -132q-91 0 -163 41t-72 112zM106 155q0 -48 36.5 -83t87.5 -51t107 -16q186 0 256 168q-12 8 -52.5 37.5t-60 42t-53.5 31.5t-63.5 27t-58.5 8 q-90 0 -144.5 -46.5t-54.5 -117.5z" />
<glyph unicode="&#xad;" horiz-adv-x="0" />
<glyph unicode="&#xc0;" d="M29 4l542 1457l616 -1457h-273l-225 532h-458l-199 -532h-3zM232 539h456l-242 575zM389 1817q0 27 18 48.5t44 21.5q62 0 130 -64l246 -253l-2 -3l-324 135q-112 52 -112 115z" />
<glyph unicode="&#xc2;" d="M29 4l542 1457l616 -1457h-273l-225 532h-458l-199 -532h-3zM232 539h456l-242 575zM232 1461l298 324l49 54l352 -378h-4l-348 374l-343 -374h-4z" />
<glyph unicode="&#xc3;" d="M29 4l542 1457l616 -1457h-273l-225 532h-458l-199 -532h-3zM183 1588q94 218 299 175q26 -5 90 -37t130.5 -58t112.5 -23q23 1 41.5 10.5t32 28.5t20.5 32t18 39l2 -1q-73 -183 -225 -183q-49 0 -103 21.5t-94 47t-93.5 47t-102.5 21.5q-45 0 -74 -33.5t-51 -87.5z M232 539h456l-242 575z" />
<glyph unicode="&#xc4;" d="M29 4l542 1457l616 -1457h-273l-225 532h-458l-199 -532h-3zM232 539h456l-242 575zM232 1673.5q0 36.5 25 60.5q26 24 62 24t61 -24q26 -24 26 -60.5t-26 -63.5q-25 -27 -61 -27t-62 27q-25 27 -25 63.5zM730 1673.5q0 36.5 25 60.5q26 24 62.5 24t61.5 -24 q26 -24 26 -60.5t-26 -63.5q-25 -27 -61.5 -27t-62.5 27q-25 27 -25 63.5z" />
<glyph unicode="&#xc5;" d="M29 4l541 1454h-1l-1 -1q-63 0 -107.5 44.5t-44.5 107.5t44.5 107.5t107.5 44.5t107.5 -44.5t44.5 -107.5q0 -61 -43 -105t-105 -46l615 -1454h-273l-225 532h-458l-199 -532h-3zM232 539h456l-242 575zM423 1609q0 -60 42.5 -102.5t102.5 -42.5t102.5 42.5t42.5 102.5 t-42.5 103t-102.5 43t-102.5 -43t-42.5 -103z" />
<glyph unicode="&#xc6;" horiz-adv-x="1939" d="M29 2l795 1433v3h933l10 -377h-3q-3 85 -12.5 144.5t-30 101.5t-45.5 66.5t-69 38.5t-91 18.5t-119 4.5h-361v-656h232q59 0 96 10t68.5 39.5t45.5 89t14 153.5h3v-586h-3q0 163 -55.5 227t-168.5 64h-232v-771h338h3q57 0 84.5 0.5t76.5 4.5t74 11.5t63 22.5t58 37 t44.5 55.5t37 77.5t22 103t10.5 132h3l-6 -447h-1016v3v771h-367l-429 -774h-3zM464 779h364v656z" />
<glyph unicode="&#xc7;" horiz-adv-x="1554" d="M86 712q0 133 42.5 253t118.5 212q110 134 276.5 210t343.5 74q168 0 317 -47q29 -10 56.5 -17t62 -10.5t60.5 1t45.5 23t22.5 50.5h3v-470h-3q0 110 -9 150q-12 53 -49 107q-56 79 -141 137q-48 32 -158.5 52.5t-206.5 20.5q-132 0 -222.5 -55.5t-159.5 -172.5 q-70 -118 -101.5 -235.5t-31.5 -282.5q0 -351 126.5 -543.5t388.5 -192.5q97 0 207 20.5t157 52.5q48 33 78.5 64t62.5 77q29 43 43 94.5t15 77.5t1 82h3v-471h-3q-15 18 -37 38q-38 34 -103 34q-34 0 -107 -25q-139 -44 -303 -46l-84 -201q64 0 120 -12.5t101 -37 t71.5 -65.5t26.5 -94q0 -115 -76 -177.5t-191 -62.5q-106 0 -185 53q-38 27 -58.5 57.5t-21.5 55.5t6.5 46.5t23 33.5t31.5 12q30 0 44.5 -26t20.5 -63t16 -74t40 -63t83 -26q48 0 82 34.5t49 86t15 112.5q0 110 -41.5 158t-162.5 48l85 205q-2 0 -5 -0.5t-4 -0.5 q-149 0 -288.5 50.5t-249.5 143.5q-111 93 -177 235t-66 310z" />
<glyph unicode="&#xc8;" horiz-adv-x="1400" d="M154 1v3v1429h1053l11 -376h-3q-4 84 -14.5 143t-33.5 101.5t-52 67t-79 38.5t-103 18.5t-135 4.5h-408v-654h16q53 0 89 5.5t69.5 23t53 49.5t31 84.5t11.5 128.5h3v-584h-3q0 84 -16.5 141.5t-51 89.5t-79 45.5t-107.5 13.5h-16v-769h382q64 0 96 0.5t87.5 4.5t84 11.5 t72 22.5t66 37t51 55.5t42.5 77.5t24.5 103t12.5 132h3l-7 -447h-1150zM464 1805q0 27 18 48.5t44 21.5q63 0 131 -64l246 -253l-2 -3l-325 136q-112 52 -112 114z" />
<glyph unicode="&#xc9;" horiz-adv-x="1400" d="M154 1v3v1429h1053l11 -376h-3q-4 84 -14.5 143t-33.5 101.5t-52 67t-79 38.5t-103 18.5t-135 4.5h-408v-654h16q53 0 89 5.5t69.5 23t53 49.5t31 84.5t11.5 128.5h3v-584h-3q0 84 -16.5 141.5t-51 89.5t-79 45.5t-107.5 13.5h-16v-769h382q64 0 96 0.5t87.5 4.5t84 11.5 t72 22.5t66 37t51 55.5t42.5 77.5t24.5 103t12.5 132h3l-7 -447h-1150zM452 1557q132 134 201 201t90 83.5t36 22.5q69 29 101 -23q14 -25 9.5 -50.5t-24.5 -45.5q-11 -12 -34.5 -25t-113 -52t-265.5 -111z" />
<glyph unicode="&#xca;" horiz-adv-x="1400" d="M154 1v3v1429h1053l11 -376h-3q-4 84 -14.5 143t-33.5 101.5t-52 67t-79 38.5t-103 18.5t-135 4.5h-408v-654h16q53 0 89 5.5t69.5 23t53 49.5t31 84.5t11.5 128.5h3v-584h-3q0 84 -16.5 141.5t-51 89.5t-79 45.5t-107.5 13.5h-16v-769h382q64 0 96 0.5t87.5 4.5t84 11.5 t72 22.5t66 37t51 55.5t42.5 77.5t24.5 103t12.5 132h3l-7 -447h-1150zM335 1633l299 325l49 54l351 -379h-4l-347 375l-344 -375h-4z" />
<glyph unicode="&#xcb;" horiz-adv-x="1400" d="M154 1v3v1429h1053l11 -376h-3q-4 84 -14.5 143t-33.5 101.5t-52 67t-79 38.5t-103 18.5t-135 4.5h-408v-654h16q53 0 89 5.5t69.5 23t53 49.5t31 84.5t11.5 128.5h3v-584h-3q0 84 -16.5 141.5t-51 89.5t-79 45.5t-107.5 13.5h-16v-769h382q64 0 96 0.5t87.5 4.5t84 11.5 t72 22.5t66 37t51 55.5t42.5 77.5t24.5 103t12.5 132h3l-7 -447h-1150zM387 1673.5q0 36.5 25 60.5q26 24 62 24t61 -24q26 -24 26 -60.5t-26 -63.5q-25 -27 -61 -27t-62 27q-25 27 -25 63.5zM886 1673.5q0 36.5 25 60.5q26 24 62 24t61 -24q26 -24 26 -60.5t-26 -63.5 q-25 -27 -61 -27t-62 27q-25 27 -25 63.5z" />
<glyph unicode="&#xcc;" horiz-adv-x="745" d="M154 1806q0 27 18 49t44 22q60 0 130 -65l246 -252l-2 -3l-324 135q-112 52 -112 114zM315 1v3v1426v3h236v-3v-1426v-3h-236z" />
<glyph unicode="&#xcd;" horiz-adv-x="745" d="M154 1559q132 134 201 201t89.5 83t35.5 22q70 29 101 -22q14 -25 9.5 -50.5t-24.5 -45.5q-11 -12 -34 -24.5t-112.5 -52t-265.5 -111.5zM255 1v3v1426v3h236v-3v-1426v-3h-236z" />
<glyph unicode="&#xce;" horiz-adv-x="1005" d="M154 1583l298 325l49 54l352 -379h-4l-348 375l-343 -375h-4zM385 1v3v1426v3h236v-3v-1426v-3h-236z" />
<glyph unicode="&#xcf;" horiz-adv-x="980" d="M153 1673.5q0 36.5 25 60.5q26 24 62.5 24t61.5 -24q26 -24 26 -60.5t-26 -63.5q-25 -27 -61.5 -27t-62.5 27q-25 27 -25 63.5zM372 1v3v1426v3h236v-3v-1426v-3h-236zM652 1673.5q0 36.5 25 60.5q26 24 62 24t61 -24q26 -24 26 -60.5t-26 -63.5q-25 -27 -61 -27t-62 27 q-25 27 -25 63.5z" />
<glyph unicode="&#xd1;" horiz-adv-x="1337" d="M154 1v1429v3h264l761 -1101v1102h4v-1461h-4l-996 1397q-19 30 -19 60h-7v-1429h-3zM296 1588q93 218 298 175q26 -5 90 -37t130.5 -58t112.5 -23q23 1 41.5 10.5t32 28.5t20.5 32t18 39l2 -1q-73 -183 -225 -183q-49 0 -103 21.5t-94 47t-93.5 47t-102.5 21.5 q-45 0 -73.5 -33.5t-50.5 -87.5z" />
<glyph unicode="&#xd2;" horiz-adv-x="1730" d="M84 712q0 148 58.5 285t160 239.5t248.5 163.5t314 61q176 0 325 -62t247 -165.5t153 -239t55 -282.5q0 -146 -58.5 -281t-160 -236t-248 -161.5t-313.5 -60.5q-74 0 -142 11l-60 13q-181 44 -314.5 154.5t-199 255t-65.5 305.5zM350 712q0 -142 16.5 -254t53.5 -204 t99.5 -154.5t150.5 -93.5q84 -30 195 -30q144 0 245.5 50.5t160 149.5t84 229.5t25.5 306.5q0 86 -1.5 140.5t-12 141.5t-29.5 143.5t-57 123t-91.5 105.5t-136 65.5t-187.5 26.5t-187.5 -28t-136 -68.5t-91.5 -108.5t-57 -125.5t-29.5 -144t-12 -138.5t-1.5 -133zM645 1847 q0 27 18 49t44 22q61 0 131 -65l246 -252l-2 -3l-324 135q-113 53 -113 114z" />
<glyph unicode="&#xd3;" horiz-adv-x="1730" d="M84 712q0 148 58.5 285t160 239.5t248.5 163.5t314 61q176 0 325 -62t247 -165.5t153 -239t55 -282.5q0 -146 -58.5 -281t-160 -236t-248 -161.5t-313.5 -60.5q-74 0 -142 11l-60 13q-181 44 -314.5 154.5t-199 255t-65.5 305.5zM350 712q0 -142 16.5 -254t53 -204 t99 -154.5t150.5 -93.5q84 -30 196 -30q144 0 245.5 50.5t160 149.5t84 229.5t25.5 306.5q0 86 -1.5 140.5t-12 141.5t-29.5 143.5t-57 123t-91.5 105.5t-136 65.5t-187.5 26.5t-187.5 -28t-136 -68.5t-91.5 -108.5t-57 -125.5t-29.5 -144t-12 -138.5t-1.5 -133zM705 1600 q131 133 201 200.5t90.5 83.5t35.5 22q70 29 101 -22q14 -25 9.5 -50.5t-24.5 -45.5q-11 -12 -34.5 -25t-113 -52t-265.5 -111z" />
<glyph unicode="&#xd4;" horiz-adv-x="1730" d="M84 712q0 148 58.5 285t160 239.5t248.5 163.5t314 61q176 0 325 -62t247 -165.5t153 -239t55 -282.5q0 -146 -58.5 -281t-160 -236t-248 -161.5t-313.5 -60.5q-74 0 -142 11l-60 13q-181 44 -314.5 154.5t-199 255t-65.5 305.5zM350 712q0 -142 16.5 -254t53 -204 t99 -154.5t150.5 -93.5q84 -30 196 -30q144 0 245.5 50.5t160 149.5t84 229.5t25.5 306.5q0 86 -1.5 140.5t-12 141.5t-29.5 143.5t-57 123t-91.5 105.5t-136 65.5t-187.5 26.5t-187.5 -28t-136 -68.5t-91.5 -108.5t-57 -125.5t-29.5 -144t-12 -138.5t-1.5 -133zM515 1581 l299 325l49 54l351 -379h-4l-347 375l-344 -375h-4z" />
<glyph unicode="&#xd5;" horiz-adv-x="1730" d="M84 712q0 148 58.5 285t160 239.5t248.5 163.5t314 61q176 0 325 -62t247 -165.5t153 -239t55 -282.5q0 -146 -58.5 -281t-160 -236t-248 -161.5t-313.5 -60.5q-74 0 -142 11l-60 13q-181 44 -314.5 154.5t-199 255t-65.5 305.5zM350 712q0 -142 16.5 -254t53.5 -204 t99.5 -154.5t150.5 -93.5q84 -30 195 -30q144 0 245.5 50.5t160 149.5t84 229.5t25.5 306.5q0 86 -1.5 140.5t-12 141.5t-29.5 143.5t-57 123t-91.5 105.5t-136 65.5t-187.5 26.5t-187.5 -28t-136 -68.5t-91.5 -108.5t-57 -125.5t-29.5 -144t-12 -138.5t-1.5 -133zM492 1588 q94 218 299 175q26 -5 90 -37t130 -58t112 -23q23 1 41.5 10.5t32 28.5t20.5 32t18 39l2 -1q-73 -183 -224 -183q-49 0 -103.5 21.5t-94.5 47t-93.5 47t-102.5 21.5q-45 0 -73.5 -33.5t-50.5 -87.5z" />
<glyph unicode="&#xd6;" horiz-adv-x="1730" d="M84 712q0 148 58.5 285t160 239.5t248.5 163.5t314 61q176 0 325 -62t247 -165.5t153 -239t55 -282.5q0 -146 -58.5 -281t-160 -236t-248 -161.5t-313.5 -60.5q-74 0 -142 11l-60 13q-181 44 -314.5 154.5t-199 255t-65.5 305.5zM350 712q0 -142 16.5 -254t53 -204 t99 -154.5t150.5 -93.5q84 -30 196 -30q144 0 245.5 50.5t160 149.5t84 229.5t25.5 306.5q0 86 -1.5 140.5t-12 141.5t-29.5 143.5t-57 123t-91.5 105.5t-136 65.5t-187.5 26.5t-187.5 -28t-136 -68.5t-91.5 -108.5t-57 -125.5t-29.5 -144t-12 -138.5t-1.5 -133zM528 1673.5 q0 36.5 25 60.5q26 24 62 24t61 -24q26 -24 26 -60.5t-26 -63.5q-25 -27 -61 -27t-62 27q-25 27 -25 63.5zM1027 1673.5q0 36.5 25 60.5q26 24 62 24t61 -24q26 -24 26 -60.5t-26 -63.5q-25 -27 -61 -27t-62 27q-25 27 -25 63.5z" />
<glyph unicode="&#xd8;" horiz-adv-x="1730" d="M84 712q0 148 58.5 285t160 239.5t248.5 163.5t314 61q291 0 499 -163l113 126l5 -5l-113 -125q132 -105 204 -258t72 -324q0 -146 -58.5 -281t-160 -236t-248 -161.5t-313.5 -60.5q-74 0 -142 11l-60 13q-181 43 -316 155l-137 -153l-5 5l137 152q-124 104 -191 250 t-67 306zM349 712q0 -293 74 -465l877 979q-119 232 -435 232q-82 0 -151 -17t-118.5 -43.5t-89 -70t-65 -85.5t-44 -102t-27.5 -106.5t-14 -113t-6 -107t-1 -101.5zM426 240q78 -177 243 -234q84 -30 196 -30q144 0 245.5 50.5t160 149.5t84 229.5t25.5 306.5q0 106 -3 175 t-21.5 166t-52.5 167z" />
<glyph unicode="&#xd9;" horiz-adv-x="1449" d="M154 437v993v3h236v-3v-1116q0 -338 360 -338q159 0 280 47t192.5 145.5t71.5 238.5v1027h3v-1027q0 -143 -74.5 -242.5t-195.5 -145.5t-277 -46q-596 0 -596 464zM610 1760q0 27 18 48.5t44 21.5q63 0 131 -64l246 -252l-2 -3l-325 135q-112 52 -112 114z" />
<glyph unicode="&#xdb;" horiz-adv-x="1429" d="M141 437v993v3h237v-3h-1v-1116q0 -338 361 -338q159 0 280 47t192.5 145.5t71.5 238.5v1027h3v-1027q0 -143 -74.5 -242.5t-195.5 -145.5t-277 -46q-597 0 -597 464zM442 1568l298 325l49 54l352 -379h-4l-348 375l-343 -375h-4z" />
<glyph unicode="&#xdc;" horiz-adv-x="1449" d="M154 437v993v3h236v-3v-1116q0 -338 360 -338q159 0 280 47t192.5 145.5t71.5 238.5v1027h3v-1027q0 -143 -74.5 -242.5t-195.5 -145.5t-277 -46q-596 0 -596 464zM425 1673.5q0 36.5 25 60.5q26 24 62.5 24t61.5 -24q26 -24 26 -60.5t-26 -63.5q-25 -27 -61.5 -27 t-62.5 27q-25 27 -25 63.5zM924 1673.5q0 36.5 25 60.5q26 24 62 24t61 -24q26 -24 26 -60.5t-26 -63.5q-25 -27 -61 -27t-62 27q-25 27 -25 63.5z" />
<glyph unicode="&#xdd;" horiz-adv-x="1236" d="M16 1433h274l2 -3l479 -778l443 782h3l-444 -786v-647h-236v591l-519 838zM506 1513q132 134 201 201t89.5 83t35.5 22q70 29 101 -22q14 -25 9.5 -50.5t-24.5 -45.5q-11 -12 -34 -24.5t-112.5 -52t-265.5 -111.5z" />
<glyph unicode="&#xdf;" horiz-adv-x="1159" d="M102 2v3h143v952q0 79 15 156.5t48.5 150.5t80.5 129t117 89.5t153 33.5q148 0 234 -83q41 -40 63.5 -100.5t22.5 -121.5q0 -71 -29 -129t-79 -97t-108 -64.5t-126 -39.5v-8q179 -42 299 -175t120 -306q0 -175 -103 -292t-270 -117q-88 0 -151 53t-63 136l120 -88 q0 -45 27 -71t67 -26q93 0 141 104.5t48 297.5q0 68 -6.5 129.5t-26.5 129.5t-51.5 116t-86 80t-126.5 32h-92v3h112q67 0 118.5 51t76.5 126t25 159q0 132 -46.5 215t-127.5 83q-105 0 -168.5 -124.5t-63.5 -329.5v-1057h-307z" />
<glyph unicode="&#xe0;" horiz-adv-x="1013" d="M70 194q0 113 71 174.5t214 98.5q220 57 275 72v7q-40 8 -81.5 20t-104 34t-112 54t-69.5 69l-74 107q103 70 248 70q199 0 289 -93q90 -91 90 -245v-450q0 -38 3 -58t12.5 -37.5t31.5 -21.5t57 -3t91 11v-3q-52 -17 -112.5 -15t-113.5 17t-95.5 49t-59.5 81v7 q-59 -78 -126.5 -115.5t-168.5 -37.5q-120 0 -193 55q-72 54 -72 153zM258 743q11 -32 47 -62.5t78 -50.5t95.5 -38.5t87 -27t64.5 -15.5v91q0 108 -13 150q-35 107 -183 107q-88 0 -139 -44t-37 -110zM267 210q0 -96 41 -151t120 -55q49 0 108 43t94 98v392l-244 -65 q-59 -15 -89 -85t-30 -177zM343 1371q0 29 18.5 47.5t50.5 18.5q34 0 61.5 -25.5t42.5 -75.5l90 -299l-3 -1l-209 226q-51 55 -51 109z" />
<glyph unicode="&#xe1;" horiz-adv-x="1013" d="M70 194q0 113 71 174.5t214 98.5q220 57 275 72v7q-40 8 -81.5 20t-104 34t-112 54t-69.5 69l-74 107q103 70 248 70q199 0 289 -93q90 -91 90 -245v-450q0 -38 3 -58t12.5 -37.5t31.5 -21.5t57 -3t91 11v-3q-52 -17 -112.5 -15t-113.5 17t-95.5 49t-59.5 81v7 q-59 -78 -126.5 -115.5t-168.5 -37.5q-120 0 -193 55q-72 54 -72 153zM258 743q11 -32 47 -62.5t78 -50.5t95.5 -38.5t87 -27t64.5 -15.5v91q0 108 -13 150q-35 107 -183 107q-88 0 -139 -44t-37 -110zM267 210q0 -96 41 -151t120 -55q49 0 108 43t94 98v392l-244 -65 q-59 -15 -89 -85t-30 -177zM414 1037l91 299q31 101 103 101q32 0 50.5 -18.5t18.5 -47.5q0 -54 -51 -109l-209 -226z" />
<glyph unicode="&#xe2;" horiz-adv-x="1013" d="M70 194q0 113 71 174.5t214 98.5q220 57 275 72v7q-40 8 -81.5 20t-104 34t-112 54t-69.5 69l-74 107q103 70 248 70q199 0 289 -93q90 -91 90 -245v-450q0 -38 3 -58t12.5 -37.5t31.5 -21.5t57 -3t91 11v-3q-52 -17 -112.5 -15t-113.5 17t-95.5 49t-59.5 81v7 q-59 -78 -126.5 -115.5t-168.5 -37.5q-120 0 -193 55q-72 54 -72 153zM209 1009l233 375l49 79l289 -454h-4l-285 448l-278 -448h-4zM258 743q11 -32 47 -62.5t78 -50.5t95.5 -38.5t87 -27t64.5 -15.5v91q0 108 -13 150q-35 107 -183 107q-88 0 -139 -44t-37 -110zM267 210 q0 -96 41 -151t120 -55q49 0 108 43t94 98v392l-244 -65q-59 -15 -89 -85t-30 -177z" />
<glyph unicode="&#xe3;" horiz-adv-x="1013" d="M70 194q0 113 71 174.5t214 98.5q220 57 275 72v7q-40 8 -81.5 20t-104 34t-112 54t-69.5 69l-74 107q103 70 248 70q199 0 289 -93q90 -91 90 -245v-450q0 -38 3 -58t12.5 -37.5t31.5 -21.5t57 -3t91 11v-3q-52 -17 -112.5 -15t-113.5 17t-95.5 49t-59.5 81v7 q-59 -78 -126.5 -115.5t-168.5 -37.5q-120 0 -193 55q-72 54 -72 153zM178 1074q30 208 177 208q59 0 185 -50.5t182 -50.5q26 0 43.5 19.5t22.5 37t12 47.5l3 -1q-30 -208 -176 -208q-59 0 -185 50.5t-183 50.5q-20 0 -34.5 -9t-23 -28t-12 -31.5t-8.5 -35.5zM258 743 q11 -32 47 -62.5t78 -50.5t95.5 -38.5t87 -27t64.5 -15.5v91q0 108 -13 150q-35 107 -183 107q-88 0 -139 -44t-37 -110zM267 210q0 -96 41 -151t120 -55q49 0 108 43t94 98v392l-244 -65q-59 -15 -89 -85t-30 -177z" />
<glyph unicode="&#xe4;" horiz-adv-x="1013" d="M70 194q0 113 71 174.5t214 98.5q220 57 275 72v7q-40 8 -81.5 20t-104 34t-112 54t-69.5 69l-74 107q103 70 248 70q199 0 289 -93q90 -91 90 -245v-450q0 -38 3 -58t12.5 -37.5t31.5 -21.5t57 -3t91 11v-3q-52 -17 -112.5 -15t-113.5 17t-95.5 49t-59.5 81v7 q-59 -78 -126.5 -115.5t-168.5 -37.5q-120 0 -193 55q-72 54 -72 153zM197 1140q0 42 27 69t69 27t69 -27t27 -69t-27 -69t-69 -27t-69 27t-27 69zM258 743q11 -32 47 -62.5t78 -50.5t95.5 -38.5t87 -27t64.5 -15.5v91q0 108 -13 150q-35 107 -183 107q-88 0 -139 -44 t-37 -110zM267 210q0 -96 41 -151t120 -55q49 0 108 43t94 98v392l-244 -65q-59 -15 -89 -85t-30 -177zM602 1140q0 42 27 69t69 27t69 -27t27 -69t-27 -69t-69 -27t-69 27t-27 69z" />
<glyph unicode="&#xe5;" horiz-adv-x="1013" d="M70 194q0 113 71 174.5t214 98.5q220 57 275 72v7q-40 8 -81.5 20t-104 34t-112 54t-69.5 69l-74 107q103 70 248 70q199 0 289 -93q90 -91 90 -245v-450q0 -38 3 -58t12.5 -37.5t31.5 -21.5t57 -3t91 11v-3q-52 -17 -112.5 -15t-113.5 17t-95.5 49t-59.5 81v7 q-59 -78 -126.5 -115.5t-168.5 -37.5q-120 0 -193 55q-72 54 -72 153zM258 743q11 -32 47 -62.5t78 -50.5t95.5 -38.5t87 -27t64.5 -15.5v91q0 108 -13 150q-35 107 -183 107q-88 0 -139 -44t-37 -110zM267 210q0 -96 41 -151t120 -55q49 0 108 43t94 98v392l-244 -65 q-59 -15 -89 -85t-30 -177zM333 1179q0 73 52 125t126 52q73 0 125 -52t52 -125t-52 -125t-125 -52q-74 0 -126 52t-52 125zM340 1179q0 -71 50 -121t121 -50q70 0 120 50t50 121t-49.5 120.5t-120.5 49.5t-121 -50t-50 -120z" />
<glyph unicode="&#xe6;" horiz-adv-x="1406" d="M70 195q0 115 63.5 179t187.5 94q6 1 29 7t28.5 7t24 5.5t25.5 5.5t23.5 4t26 3.5t25 2t30.5 2t32 0.5v138q0 114 -15 159q-33 98 -159 98q-89 0 -133.5 -56.5t-10.5 -134.5q15 -31 15 -62t-22.5 -51.5t-62.5 -20.5q-47 0 -71 25t-24 69q0 92 91 162q92 72 221 72 q176 0 255 -93q16 -19 27 -37q124 130 308 130q78 0 146 -31t110 -83q86 -105 86 -206q0 -44 -15.5 -62.5t-58.5 -18.5h-517q0 -158 25 -254q18 -67 65 -116t105.5 -71t124 -19t120.5 30.5t94.5 86.5t47.5 141h3q-13 -142 -106 -228t-233 -86q-109 0 -196.5 44t-145.5 122 h-1q-48 -72 -144 -119t-190 -47q-105 0 -170 56q-64 55 -64 153zM244 211q0 -96 36.5 -151.5t105.5 -55.5q51 0 133 46t117 105q-1 3 -4.5 8t-4.5 8q-32 53 -47.5 136t-15.5 139l1 56q-27 0 -50.5 -1.5t-38.5 -2.5t-37 -5.5t-30 -6.5t-34.5 -9t-35.5 -9q-95 -24 -95 -257z M736 505h350q40 0 54 22t14 76q0 45 -3.5 81.5t-15 78.5t-31.5 70.5t-56 47.5t-85 19q-59 0 -104 -39.5t-70 -103t-37.5 -126.5t-15.5 -126z" />
<glyph unicode="&#xe7;" horiz-adv-x="1021" d="M86 431q0 96 35.5 182t98.5 149.5t155.5 100.5t201.5 37q89 0 165.5 -31t124.5 -83l-98 -186q0 45 -3.5 81.5t-16.5 78.5t-35.5 70.5t-63.5 47.5t-96 19q-53 0 -97 -26.5t-72 -67t-48 -94t-29 -103t-12 -98.5l-1 -7q0 -157 28 -254q20 -67 73 -116t119.5 -70.5 t140.5 -18.5t137 30.5t107.5 86.5t53.5 140h4q-14 -142 -120 -227.5t-264 -85.5q-16 0 -46 2l-59 -142q96 0 162.5 -38t66.5 -112q0 -83 -54.5 -127.5t-137.5 -44.5q-76 0 -132 38q-27 19 -41.5 41t-16 40t4.5 33.5t16.5 24t22.5 8.5q21 0 31.5 -18.5t15 -45t11.5 -53.5 t28.5 -45.5t59.5 -18.5q51 0 78 49t27 118q0 79 -30 113.5t-116 34.5l60 145q-198 15 -318.5 141t-120.5 302z" />
<glyph unicode="&#xe8;" horiz-adv-x="1038" d="M86 431q0 96 35.5 182t98.5 149.5t155.5 100.5t201.5 37q89 0 165.5 -31t124.5 -83q60 -63 83 -126l1 -3l1 -2l-656 -205q3 -123 27 -203q20 -67 73 -116t119.5 -70.5t140.5 -18.5t137 30.5t107.5 86.5t53.5 140h4q-14 -142 -120 -227.5t-264 -85.5q-109 0 -201 35.5 t-154.5 95.5t-97.5 141.5t-35 172.5zM295 501q0 -8 0.5 -23.5t0.5 -22.5l473 148q0 45 -4 81t-17 77.5t-35.5 69.5t-63 47t-95.5 19q-53 0 -97 -26.5t-72 -67t-48 -94t-29 -103t-12 -98.5zM401 1339q0 29 18.5 47.5t50.5 18.5q72 0 103 -101l90 -298l-3 -1l-208 226 q-51 55 -51 108z" />
<glyph unicode="&#xe9;" horiz-adv-x="1038" d="M86 431q0 96 35.5 182t98.5 149.5t155.5 100.5t201.5 37q89 0 165.5 -31t124.5 -83q60 -63 83 -126l1 -3l1 -2l-656 -205q3 -123 27 -203q20 -67 73 -116t119.5 -70.5t140.5 -18.5t137 30.5t107.5 86.5t53.5 140h4q-14 -142 -120 -227.5t-264 -85.5q-109 0 -201 35.5 t-154.5 95.5t-97.5 141.5t-35 172.5zM295 501q0 -8 0.5 -23.5t0.5 -22.5l473 148q0 45 -4 81t-17 77.5t-35.5 69.5t-63 47t-95.5 19q-53 0 -97 -26.5t-72 -67t-48 -94t-29 -103t-12 -98.5zM400 1006l92 298q31 101 103 101q31 0 50 -18.5t19 -47.5q0 -53 -51 -108l-210 -226 z" />
<glyph unicode="&#xea;" horiz-adv-x="1038" d="M86 431q0 96 35.5 182t98.5 149.5t155.5 100.5t201.5 37q89 0 165.5 -31t124.5 -83q60 -63 83 -126l1 -3l1 -2l-656 -205q3 -123 27 -203q20 -67 73 -116t119.5 -70.5t140.5 -18.5t137 30.5t107.5 86.5t53.5 140h4q-14 -142 -120 -227.5t-264 -85.5q-109 0 -201 35.5 t-154.5 95.5t-97.5 141.5t-35 172.5zM247 978l233 375l49 79l289 -454h-4l-285 448l-278 -448h-4zM295 501q0 -8 0.5 -23.5t0.5 -22.5l473 148q0 45 -4 81t-17 77.5t-35.5 69.5t-63 47t-95.5 19q-53 0 -97 -26.5t-72 -67t-48 -94t-29 -103t-12 -98.5z" />
<glyph unicode="&#xeb;" horiz-adv-x="1038" d="M86 431q0 96 35.5 182t98.5 149.5t155.5 100.5t201.5 37q89 0 165.5 -31t124.5 -83q60 -63 83 -126l1 -3l1 -2l-656 -205q3 -123 27 -203q20 -67 73 -116t119.5 -70.5t140.5 -18.5t137 30.5t107.5 86.5t53.5 140h4q-14 -142 -120 -227.5t-264 -85.5q-109 0 -201 35.5 t-154.5 95.5t-97.5 141.5t-35 172.5zM249 1160q0 42 27 69t69 27t69 -27t27 -69t-27 -69t-69 -27t-69 27t-27 69zM295 501q0 -8 0.5 -23.5t0.5 -22.5l473 148q0 45 -4 81t-17 77.5t-35.5 69.5t-63 47t-95.5 19q-53 0 -97 -26.5t-72 -67t-48 -94t-29 -103t-12 -98.5z M653 1160q0 42 27 69t69 27q43 0 70 -27t27 -69t-27 -69t-70 -27q-42 0 -69 27t-27 69z" />
<glyph unicode="&#xec;" horiz-adv-x="458" d="M92 1390q0 28 19 47t50 19q72 0 103 -101l91 -299l-3 -1l-209 227q-51 55 -51 108zM153 2v740l2 1l184 138v-879v1zM339 884v1h2z" />
<glyph unicode="&#xed;" horiz-adv-x="514" d="M92 2v740l2 1l184 138v-879v1zM147 1006l91 298q31 101 103 101q31 0 50 -18.5t19 -47.5q0 -53 -51 -108l-209 -226zM278 884v1h2z" />
<glyph unicode="&#xee;" horiz-adv-x="727" d="M92 975l214 375l48 85l269 -460h-4l-265 454l-258 -454h-4zM245 3v739l2 1l185 138v-878h-1h-186zM432 884v1h1z" />
<glyph unicode="&#xef;" horiz-adv-x="763" d="M92 1127q0 42 27 69t69 27t69 -27q28 -28 28 -69t-28 -69q-27 -27 -69 -27t-69 27t-27 69zM284 3v739l2 1l184 138v-878h-1h-185zM469 1127q0 42 27 69t69 27t69 -27t27 -69t-27 -69t-69 -27t-69 27t-27 69zM470 884v1h1z" />
<glyph unicode="&#xf1;" horiz-adv-x="1071" d="M123 2v3v741l185 138h1v-242q56 115 155 186.5t213 71.5q141 0 219 -85q71 -77 71 -207v-603v-3h-186v3v639q0 104 -39 173.5t-125 69.5q-47 0 -112 -35.5t-110 -87.5q-27 -30 -42.5 -52.5t-28 -46t-15.5 -28.5v-632v-3h-186zM232 1054q30 209 177 209q59 0 185 -50.5 t182 -50.5q26 0 43.5 19.5t22.5 37t12 47.5l3 -1q-30 -209 -176 -209q-59 0 -185 51t-183 51q-16 0 -29 -7.5t-20.5 -16.5t-14 -26.5t-8.5 -26.5t-6 -28z" />
<glyph unicode="&#xf2;" horiz-adv-x="1150" d="M86 439q-1 195 136 328q137 131 342 133q203 2 342 -127q140 -129 142 -327q1 -196 -137 -328q-135 -130 -340 -132q-204 -2 -344 127t-141 326zM297 441q0 -66 5.5 -122t23 -120t46.5 -108t80 -73.5t119 -28.5q269 2 266 456q0 66 -5.5 122t-23 120t-46.5 108 t-79.5 73.5t-118.5 28.5q-270 -2 -267 -456zM436 1357q0 29 19 47.5t50 18.5q72 0 103 -101l90 -298l-3 -1l-208 226q-51 55 -51 108z" />
<glyph unicode="&#xf3;" horiz-adv-x="1150" d="M86 439q-1 195 136 328q137 131 342 133q203 2 342 -127q140 -129 142 -327q1 -196 -137 -328q-135 -130 -340 -132q-204 -2 -344 127t-141 326zM297 441q0 -66 5.5 -122t23 -120t46.5 -108t80 -73.5t119 -28.5q269 2 266 456q0 66 -5.5 122t-23 120t-46.5 108 t-79.5 73.5t-118.5 28.5q-270 -2 -267 -456zM435 1006l92 298q31 101 103 101q32 0 50.5 -18.5t18.5 -47.5q0 -53 -51 -108l-210 -226z" />
<glyph unicode="&#xf4;" horiz-adv-x="1150" d="M86 439q-1 195 136 328q137 131 342 133q203 2 342 -127q140 -129 142 -327q1 -196 -137 -328q-135 -130 -340 -132q-204 -2 -344 127t-141 326zM282 978l233 375l49 79l289 -454h-4l-285 448l-278 -448h-4zM297 441q0 -66 5.5 -122t23 -120t46.5 -108t80 -73.5 t119 -28.5q269 2 266 456q0 66 -5.5 122t-23 120t-46.5 108t-79.5 73.5t-118.5 28.5q-270 -2 -267 -456z" />
<glyph unicode="&#xf5;" horiz-adv-x="1150" d="M86 439q-1 195 136 328q137 131 342 133q203 2 342 -127q140 -129 142 -327q1 -196 -137 -328q-135 -130 -340 -132q-204 -2 -344 127t-141 326zM255 1054q30 209 176 209q59 0 185 -50.5t183 -50.5q26 0 43.5 19.5t22.5 37t12 47.5l3 -1q-30 -209 -177 -209 q-59 0 -184.5 51t-182.5 51q-16 0 -29 -7.5t-20.5 -16.5t-14 -26.5t-8.5 -26.5t-6 -28zM297 441q0 -66 5.5 -122t23 -120t46.5 -108t80 -73.5t119 -28.5q269 2 266 456q0 66 -5.5 122t-23 120t-46.5 108t-79.5 73.5t-118.5 28.5q-270 -2 -267 -456z" />
<glyph unicode="&#xf6;" horiz-adv-x="1150" d="M86 439q-1 195 136 328q137 131 342 133q203 2 342 -127q140 -129 142 -327q1 -196 -137 -328q-135 -130 -340 -132q-204 -2 -344 127t-141 326zM269 1129q0 42 27 69t69 27t69 -27t27 -69t-27 -69t-69 -27t-69 27t-27 69zM297 441q0 -66 5.5 -122t23 -120t46.5 -108 t80 -73.5t119 -28.5q269 2 266 456q0 66 -5.5 122t-23 120t-46.5 108t-79.5 73.5t-118.5 28.5q-270 -2 -267 -456zM673 1129q0 42 27 69t69 27q43 0 70 -27t27 -69t-27 -69t-70 -27q-42 0 -69 27t-27 69z" />
<glyph unicode="&#xf8;" horiz-adv-x="1157" d="M86 -65l155 168q-2 1 -6 4.5t-6 5.5q-140 129 -141 326q-1 195 136 328q137 131 342 133q182 2 314 -103l168 183l5 -4l-168 -183q4 -3 12 -9.5t12 -10.5q140 -129 142 -327q1 -196 -137 -328q-135 -130 -341 -132q-190 -1 -327 113l-155 -169zM299 441q2 -147 29 -243 l474 515q-64 185 -236 184q-270 -2 -267 -456zM330 190q61 -202 243 -201q270 2 267 456q-2 161 -35 261z" />
<glyph unicode="&#xf9;" horiz-adv-x="1048" d="M102 277v468h1l186 139v-643q0 -98 48.5 -165.5t137.5 -67.5q57 0 112.5 31t92 75.5t59 90t22.5 77.5v463l186 139v-879v-3h-186v249l-14 -37q-54 -111 -145.5 -169.5t-208.5 -58.5q-141 0 -219 85q-72 78 -72 206zM393 1264q0 28 18.5 47t50.5 19q34 0 61.5 -25.5 t42.5 -75.5l90 -299l-3 -1l-209 226q-51 55 -51 109z" />
<glyph unicode="&#xfa;" horiz-adv-x="1048" d="M102 277v468h1l186 139v-643q0 -98 48.5 -165.5t137.5 -67.5q57 0 112.5 31t92 75.5t59 90t22.5 77.5v463l186 139v-879v-3h-186v249l-14 -37q-54 -111 -145.5 -169.5t-208.5 -58.5q-141 0 -219 85q-72 78 -72 206zM438 930l91 298q15 50 42 76t61 26q32 0 50.5 -19 t18.5 -47q0 -54 -51 -109l-209 -226z" />
<glyph unicode="&#xfb;" horiz-adv-x="1048" d="M102 277v468h1l186 139v-643q0 -98 48.5 -165.5t137.5 -67.5q57 0 112.5 31t92 75.5t59 90t22.5 77.5v463l186 139v-879v-3h-186v249l-14 -37q-54 -111 -145.5 -169.5t-208.5 -58.5q-141 0 -219 85q-72 78 -72 206zM239 958l233 374l50 79l288 -453h-4l-284 447 l-279 -447h-4z" />
<glyph unicode="&#xfc;" horiz-adv-x="1048" d="M102 277v468h1l186 139v-643q0 -98 48.5 -165.5t137.5 -67.5q57 0 112.5 31t92 75.5t59 90t22.5 77.5v463l186 139v-879v-3h-186v249l-14 -37q-54 -111 -145.5 -169.5t-208.5 -58.5q-141 0 -219 85q-72 78 -72 206zM226 1129q0 42 27 69t69 27t69 -27t27 -69t-27 -69 t-69 -27t-69 27t-27 69zM631 1129q0 42 27 69t69 27t69 -27t27 -69t-27 -69t-69 -27t-69 27t-27 69z" />
<glyph unicode="&#xfd;" horiz-adv-x="927" d="M39 881v3h202v-3l372 -664l263 664l2 3h3l-1 -3l-438 -1105l-113 -302h-176l367 509zM489 930l91 298q32 102 104 102q32 0 50.5 -19t18.5 -47q0 -54 -51 -109l-210 -226z" />
<glyph unicode="&#xff;" horiz-adv-x="927" d="M39 881v3h202v-3l372 -664l263 664l2 3h3l-1 -3l-438 -1105l-113 -302h-176l367 509zM234 1129q0 42 27 69t69 27q43 0 70 -27t27 -69t-27 -69t-70 -27q-42 0 -69 27t-27 69zM639 1129q0 42 27 69t69 27t69 -27t27 -69t-27 -69t-69 -27t-69 27t-27 69z" />
<glyph unicode="&#x152;" horiz-adv-x="2045" d="M84 715q0 149 51.5 286t141 239.5t219 164t277.5 61.5q91 0 155 -28h923l10 -377h-3q-3 85 -12.5 144.5t-30 101.5t-46 66.5t-69.5 38.5t-91 18.5t-119 4.5h-360v-656h25q59 0 96 10t68.5 39.5t45.5 89t14 153.5h3v-586h-3q0 163 -55.5 227t-168.5 64h-25v-771h337h3 q57 0 84.5 0.5t76.5 4.5t74 11.5t63 22.5t58 37t44.5 55.5t37 77.5t22 103t10.5 132h3l-6 -447h-1011q-62 -28 -153 -28q-152 0 -282.5 61.5t-218.5 164.5t-138 237t-50 278zM318 715q0 -346 117.5 -542t337.5 -196q89 0 148 28v1431q-57 27 -148 27q-80 0 -146.5 -25 t-113 -67t-82 -103t-56.5 -125.5t-34.5 -141t-18 -144.5t-4.5 -142z" />
<glyph unicode="&#x153;" horiz-adv-x="1556" d="M86 444q0 199 115 329q117 130 288 130q170 0 285 -130q20 -23 36 -45q55 82 138 128.5t185 46.5q73 0 136 -31t103 -83q80 -105 80 -206q0 -44 -14.5 -62.5t-54.5 -18.5h-485q0 -157 24 -254q17 -67 60.5 -116t98.5 -71t116.5 -19t113.5 30.5t89 86.5t44 141h2 q-11 -142 -98 -228t-218 -86q-104 0 -187.5 45.5t-136.5 124.5q-10 -14 -32 -40q-115 -130 -285 -130q-171 0 -288 130q-115 130 -115 328zM262 444q0 -455 227 -455q225 0 225 455q0 456 -225 456q-227 0 -227 -456zM899 505h329q38 0 50.5 22t12.5 76q0 45 -3 81.5 t-14 78.5t-29.5 70.5t-52 47.5t-79.5 19q-55 0 -97.5 -39.5t-66 -102.5t-35.5 -126.5t-15 -126.5z" />
<glyph unicode="&#x178;" horiz-adv-x="1372" d="M16 1433h274l2 -3l478 -778l444 782h3l-444 -786v-647h-236v591l-519 838zM351 1673.5q0 36.5 25 60.5q26 24 62 24t61 -24q26 -24 26 -60.5t-26 -63.5q-25 -27 -61 -27t-62 27q-25 27 -25 63.5zM850 1673.5q0 36.5 25 60.5q26 24 62 24t61 -24q26 -24 26 -60.5 t-26 -63.5q-25 -27 -61 -27t-62 27q-25 27 -25 63.5z" />
<glyph unicode="&#x2000;" horiz-adv-x="1006" />
<glyph unicode="&#x2001;" horiz-adv-x="2012" />
<glyph unicode="&#x2002;" horiz-adv-x="1006" />
<glyph unicode="&#x2003;" horiz-adv-x="2012" />
<glyph unicode="&#x2004;" horiz-adv-x="670" />
<glyph unicode="&#x2005;" horiz-adv-x="503" />
<glyph unicode="&#x2006;" horiz-adv-x="335" />
<glyph unicode="&#x2007;" horiz-adv-x="335" />
<glyph unicode="&#x2008;" horiz-adv-x="251" />
<glyph unicode="&#x2009;" horiz-adv-x="402" />
<glyph unicode="&#x200a;" horiz-adv-x="111" />
<glyph unicode="&#x2010;" horiz-adv-x="692" d="M102 419v112h488v-112h-488z" />
<glyph unicode="&#x2011;" horiz-adv-x="692" d="M102 419v112h488v-112h-488z" />
<glyph unicode="&#x2012;" horiz-adv-x="692" d="M102 419v112h488v-112h-488z" />
<glyph unicode="&#x2013;" horiz-adv-x="1228" d="M102 419v112h1024v-112h-1024z" />
<glyph unicode="&#x2014;" horiz-adv-x="2252" d="M102 419v112h2048v-112h-2048z" />
<glyph unicode="&#x2018;" horiz-adv-x="415" d="M102 1121q52 22 95 65q21 21 31 41q15 32 2 58q-2 3 -13 17q-6 6 -10 9q-8 6 -13 9l-10 5q-2 1 -4 3t-4 3t-6.5 4.5t-6.5 5.5q-1 1 -13 16q-6 7 -9 15q-7 15 -7 34q2 37 24 59q18 18 41 22q5 1 17 1h2q1 0 4 -0.5t5 -0.5h7q2 -1 5 -2t5 -1l6 -3q2 -1 6 -2.5t5 -2.5 q1 0 2.5 -1t2.5 -2q5 -4 14 -13q22 -22 29 -48q6 -22 5 -46q0 -11 -1 -17q-9 -75 -81 -147q-58 -58 -130 -81z" />
<glyph unicode="&#x201c;" horiz-adv-x="905" d="M103 1078v17v1q0 11 1 16q4 41 31 85q20 31 49 61q9 9 27 25q41 34 88 52q-42 -21 -80 -59q-11 -12 -19 -22q-11 -15 -16 -30q-4 -12 -4 -17q-1 -9 3 -21q5 -16 16 -27t23 -18q26 -15 32 -21q1 -1 13 -16q16 -24 15 -49q-2 -37 -24 -59q-18 -18 -41 -22q-5 -1 -17 -1h-2 q-2 0 -5 0.5t-4 0.5h-7q-1 0 -5 1t-5 2t-3 1t-3 1q-4 2 -10 6q-1 1 -2.5 2t-2.5 1q-10 8 -15 13q-30 29 -33 77zM598 1096q0 6 2 18l3 18q6 28 21 55q2 5 8 13t7 10q14 20 24 31q5 6 17 18q30 30 59 48q33 20 65 32q-47 -21 -89 -63q-21 -21 -31 -41q-3 -4 -4 -8 q-14 -38 15 -67q6 -6 10 -9q8 -6 13 -9l10 -5l9 -6q10 -8 12 -10q30 -30 29 -65q0 -7 -2 -17q-3 -17 -12 -30q-6 -8 -10 -12t-12 -10q-19 -13 -46 -13h-2q-2 0 -5 0.5t-4 0.5h-7q-1 1 -4.5 2t-5.5 1l-6 3l-10 5q-1 0 -2.5 1t-2.5 2q-7 5 -15 12v1q-7 7 -10 11q-17 22 -22 52 q-2 10 -2 31z" />
<glyph unicode="&#x201d;" horiz-adv-x="911" d="M102 1014q52 22 95 65q21 21 31 41q15 32 2 58q-4 6 -13 18q-2 2 -10 8t-13 9l-10 5q-2 1 -4 3t-4 3q-10 8 -13 11q-5 5 -13 15q-7 9 -10 16q-6 13 -6 33q2 37 24 59q18 18 41 22q10 2 17 2h2q1 0 4 -0.5t5 -0.5q1 0 3.5 -0.5t3.5 -0.5q2 0 5 -1t5 -2q1 -1 3 -1t3 -1 q8 -4 11 -6q1 -1 2.5 -2t2.5 -1q10 -8 14 -12q22 -22 29 -48q6 -22 5 -46q0 -12 -1 -18q-9 -74 -81 -146q-59 -60 -130 -82zM609 1020q11 5 22 11q7 4 21 14q10 7 30 25l10 10q40 40 38 76q0 6 -2 14q-3 11 -11 21q-2 3 -5 6q-6 6 -19 14l-2 2t-2 1t-2.5 1t-2.5 2 q-10 6 -14 9q-2 1 -6.5 4.5t-6.5 5.5q-15 15 -22 31q-6 12 -6 33v1q0 18 6 33q4 10 7 14q6 8 10 12l2 2q12 10 23 15q4 2 16 4q10 2 17 2h4h8q1 0 3 -0.5t3 -0.5q2 0 5.5 -1t4.5 -2t3 -1t3 -1q2 -1 5.5 -3t5.5 -3q1 -1 2.5 -2t2.5 -1q10 -8 15 -13q25 -25 31 -62 q4 -21 1 -49q-9 -75 -81 -147q-9 -9 -27 -25q-12 -11 -29 -21q-29 -19 -61 -31z" />
<glyph unicode="&#x202f;" horiz-adv-x="402" />
<glyph unicode="&#x205f;" horiz-adv-x="503" />
<glyph unicode="&#x20ac;" horiz-adv-x="1675" d="M102 595v64h187q-3 38 -3 76q0 66 9 129h-193v65h204l3 15q7 29 13 50q17 56 34 98q14 32 22 48l24 45q87 154 230 234q60 34 127 55q106 34 226 36q28 2 41 2q204 0 368 -150q47 -38 90 -96l19 37q41 82 56 168l11 -481q-43 222 -149 341q-165 171 -381 177h-17h-29 q-127 -7 -244 -80q-66 -45 -122 -122q-105 -146 -133 -377h742v-65h-748q-5 -63 -5 -120q0 -42 3 -84h750v-65h-744q1 -2 1 -6.5v-6.5q30 -230 148 -371t283 -177q54 -12 113 -12q64 0 134 17q12 3 36 11q67 25 124 66q51 36 94 82q34 40 64 95q62 119 83 232v-442 q-22 79 -71 143l-20 26l-22 -25q-27 -30 -55 -55q-28 -28 -71 -59q-55 -39 -116 -63l1 -10v2q-1 2 -1 6v2q-94 -38 -192 -38q-15 0 -43 2q-44 0 -102 7q-37 5 -71 12q-51 12 -100 30q-25 10 -62 28q-20 10 -30 16q-41 24 -83 58q-22 17 -51 46q-63 63 -104 136 q-36 62 -56 127q-5 13 -10 34q-14 55 -18 87h-194zM1058 17q51 3 91 14q-36 -9 -91 -14z" />
<glyph unicode="&#x25fc;" horiz-adv-x="880" d="M0 0v881h881v-881h-881z" />
</font>
</defs>
</svg>
